# Blender 4.5.10 LTS
# www.blender.org
mtllib lur_twin.mtl
o lur_twin
v -0.002365 0.042168 0.000000
v -0.005072 0.041690 0.011153
v -0.012574 0.040367 0.019752
v -0.023151 0.038502 0.023825
v -0.034381 0.036522 0.022440
v -0.043691 0.034881 0.015915
v -0.048949 0.033954 0.005744
v -0.048949 0.033954 -0.005744
v -0.043691 0.034881 -0.015915
v -0.034381 0.036522 -0.022440
v -0.023151 0.038502 -0.023825
v -0.012574 0.040367 -0.019752
v -0.005072 0.041690 -0.011153
v -0.010750 0.086426 0.000000
v -0.013529 0.085733 0.011618
v -0.021228 0.083813 0.020575
v -0.032084 0.081107 0.024818
v -0.043609 0.078233 0.023375
v -0.053165 0.075851 0.016578
v -0.058560 0.074505 0.005983
v -0.058560 0.074505 -0.005983
v -0.053165 0.075851 -0.016578
v -0.043609 0.078233 -0.023375
v -0.032084 0.081107 -0.024818
v -0.021228 0.083813 -0.020575
v -0.013529 0.085733 -0.011618
v -0.022222 0.130058 0.000000
v -0.025054 0.129138 0.012083
v -0.032903 0.126588 0.021398
v -0.043969 0.122992 0.025810
v -0.055718 0.119175 0.024310
v -0.065458 0.116010 0.017241
v -0.070958 0.114223 0.006222
v -0.070958 0.114223 -0.006222
v -0.065458 0.116010 -0.017241
v -0.055718 0.119175 -0.024310
v -0.043969 0.122992 -0.025810
v -0.032903 0.126588 -0.021398
v -0.025054 0.129138 -0.012083
v -0.036733 0.172850 0.000000
v -0.039601 0.171692 0.012548
v -0.047546 0.168481 0.022221
v -0.058750 0.163955 0.026803
v -0.070645 0.159149 0.025245
v -0.080506 0.155165 0.017904
v -0.086074 0.152915 0.006462
v -0.086074 0.152915 -0.006462
v -0.080506 0.155165 -0.017904
v -0.070645 0.159149 -0.025245
v -0.058750 0.163955 -0.026803
v -0.047546 0.168481 -0.022221
v -0.039601 0.171692 -0.012548
v 0.002365 0.042168 0.000000
v 0.005072 0.041690 0.011153
v 0.012574 0.040367 0.019752
v 0.023151 0.038502 0.023825
v 0.034381 0.036522 0.022440
v 0.043691 0.034881 0.015915
v 0.048949 0.033954 0.005744
v 0.048949 0.033954 -0.005744
v 0.043691 0.034881 -0.015915
v 0.034381 0.036522 -0.022440
v 0.023151 0.038502 -0.023825
v 0.012574 0.040367 -0.019752
v 0.005072 0.041690 -0.011153
v 0.010750 0.086426 0.000000
v 0.013529 0.085733 0.011618
v 0.021228 0.083813 0.020575
v 0.032084 0.081107 0.024818
v 0.043609 0.078233 0.023375
v 0.053165 0.075851 0.016578
v 0.058560 0.074505 0.005983
v 0.058560 0.074505 -0.005983
v 0.053165 0.075851 -0.016578
v 0.043609 0.078233 -0.023375
v 0.032084 0.081107 -0.024818
v 0.021228 0.083813 -0.020575
v 0.013529 0.085733 -0.011618
v 0.022222 0.130058 0.000000
v 0.025054 0.129138 0.012083
v 0.032903 0.126588 0.021398
v 0.043969 0.122992 0.025810
v 0.055718 0.119175 0.024310
v 0.065458 0.116010 0.017241
v 0.070958 0.114223 0.006222
v 0.070958 0.114223 -0.006222
v 0.065458 0.116010 -0.017241
v 0.055718 0.119175 -0.024310
v 0.043969 0.122992 -0.025810
v 0.032903 0.126588 -0.021398
v 0.025054 0.129138 -0.012083
v 0.036733 0.172850 0.000000
v 0.039601 0.171692 0.012548
v 0.047546 0.168481 0.022221
v 0.058750 0.163955 0.026803
v 0.070645 0.159149 0.025245
v 0.080506 0.155165 0.017904
v 0.086074 0.152915 0.006462
v 0.086074 0.152915 -0.006462
v 0.080506 0.155165 -0.017904
v 0.070645 0.159149 -0.025245
v 0.058750 0.163955 -0.026803
v 0.047546 0.168481 -0.022221
v 0.039601 0.171692 -0.012548
v -0.033025 0.174349 0.000000
v -0.036317 0.173018 0.014406
v -0.045440 0.169333 0.025512
v -0.058303 0.164136 0.030774
v -0.071960 0.158618 0.028986
v -0.083282 0.154043 0.020557
v -0.089675 0.151460 0.007419
v -0.089675 0.151460 -0.007419
v -0.083282 0.154043 -0.020557
v -0.071960 0.158618 -0.028986
v -0.058303 0.164136 -0.030774
v -0.045440 0.169333 -0.025512
v -0.036317 0.173018 -0.014406
v -0.036220 0.181938 0.000000
v -0.039472 0.180513 0.014406
v -0.048484 0.176563 0.025512
v -0.061191 0.170994 0.030774
v -0.074681 0.165082 0.028986
v -0.085865 0.160180 0.020557
v -0.092181 0.157412 0.007419
v -0.092181 0.157412 -0.007419
v -0.085865 0.160180 -0.020557
v -0.074681 0.165082 -0.028986
v -0.061191 0.170994 -0.030774
v -0.048484 0.176563 -0.025512
v -0.039472 0.180513 -0.014406
v -0.039635 0.189431 0.000000
v -0.042845 0.187912 0.014406
v -0.051737 0.183702 0.025512
v -0.064277 0.177766 0.030774
v -0.077590 0.171463 0.028986
v -0.088626 0.166238 0.020557
v -0.094859 0.163288 0.007419
v -0.094859 0.163288 -0.007419
v -0.088626 0.166238 -0.020557
v -0.077590 0.171463 -0.028986
v -0.064277 0.177766 -0.030774
v -0.051737 0.183702 -0.025512
v -0.042845 0.187912 -0.014406
v -0.043267 0.196822 0.000000
v -0.046430 0.195210 0.014406
v -0.055197 0.190743 0.025512
v -0.067558 0.184445 0.030774
v -0.080682 0.177758 0.028986
v -0.091563 0.172214 0.020557
v -0.097706 0.169084 0.007419
v -0.097706 0.169084 -0.007419
v -0.091563 0.172214 -0.020557
v -0.080682 0.177758 -0.028986
v -0.067558 0.184445 -0.030774
v -0.055197 0.190743 -0.025512
v -0.046430 0.195210 -0.014406
v 0.033025 0.174349 0.000000
v 0.036317 0.173018 0.014406
v 0.045440 0.169333 0.025512
v 0.058303 0.164136 0.030774
v 0.071960 0.158618 0.028986
v 0.083282 0.154043 0.020557
v 0.089675 0.151460 0.007419
v 0.089675 0.151460 -0.007419
v 0.083282 0.154043 -0.020557
v 0.071960 0.158618 -0.028986
v 0.058303 0.164136 -0.030774
v 0.045440 0.169333 -0.025512
v 0.036317 0.173018 -0.014406
v 0.036220 0.181938 0.000000
v 0.039472 0.180513 0.014406
v 0.048484 0.176563 0.025512
v 0.061191 0.170994 0.030774
v 0.074681 0.165082 0.028986
v 0.085865 0.160180 0.020557
v 0.092181 0.157412 0.007419
v 0.092181 0.157412 -0.007419
v 0.085865 0.160180 -0.020557
v 0.074681 0.165082 -0.028986
v 0.061191 0.170994 -0.030774
v 0.048484 0.176563 -0.025512
v 0.039472 0.180513 -0.014406
v 0.039635 0.189431 0.000000
v 0.042845 0.187912 0.014406
v 0.051737 0.183702 0.025512
v 0.064277 0.177766 0.030774
v 0.077590 0.171463 0.028986
v 0.088626 0.166238 0.020557
v 0.094859 0.163288 0.007419
v 0.094859 0.163288 -0.007419
v 0.088626 0.166238 -0.020557
v 0.077590 0.171463 -0.028986
v 0.064277 0.177766 -0.030774
v 0.051737 0.183702 -0.025512
v 0.042845 0.187912 -0.014406
v 0.043267 0.196822 0.000000
v 0.046430 0.195210 0.014406
v 0.055197 0.190743 0.025512
v 0.067558 0.184445 0.030774
v 0.080682 0.177758 0.028986
v 0.091563 0.172214 0.020557
v 0.097706 0.169084 0.007419
v 0.097706 0.169084 -0.007419
v 0.091563 0.172214 -0.020557
v 0.080682 0.177758 -0.028986
v 0.067558 0.184445 -0.030774
v 0.055197 0.190743 -0.025512
v 0.046430 0.195210 -0.014406
v -0.036733 0.172850 0.000000
v -0.039601 0.171692 0.012548
v -0.047546 0.168481 0.022221
v -0.058750 0.163955 0.026803
v -0.070645 0.159149 0.025245
v -0.080506 0.155165 0.017904
v -0.086074 0.152915 0.006462
v -0.086074 0.152915 -0.006462
v -0.080506 0.155165 -0.017904
v -0.070645 0.159149 -0.025245
v -0.058750 0.163955 -0.026803
v -0.047546 0.168481 -0.022221
v -0.039601 0.171692 -0.012548
v -0.049029 0.204152 0.000000
v -0.051963 0.202721 0.013245
v -0.060093 0.198756 0.023455
v -0.071557 0.193165 0.028292
v -0.083728 0.187229 0.026648
v -0.093818 0.182307 0.018899
v -0.099516 0.179528 0.006820
v -0.099516 0.179528 -0.006820
v -0.093818 0.182307 -0.018899
v -0.083728 0.187229 -0.026648
v -0.071557 0.193165 -0.028292
v -0.060093 0.198756 -0.023455
v -0.051963 0.202721 -0.013245
v -0.063528 0.234613 0.000000
v -0.066504 0.232895 0.013942
v -0.074750 0.228134 0.024690
v -0.086377 0.221421 0.029781
v -0.098721 0.214294 0.028050
v -0.108955 0.208385 0.019894
v -0.114734 0.205049 0.007179
v -0.114734 0.205049 -0.007179
v -0.108955 0.208385 -0.019894
v -0.098721 0.214294 -0.028050
v -0.086377 0.221421 -0.029781
v -0.074750 0.228134 -0.024690
v -0.066504 0.232895 -0.013942
v -0.080171 0.264077 0.000000
v -0.083162 0.262059 0.014639
v -0.091451 0.256469 0.025924
v -0.103138 0.248586 0.031270
v -0.115546 0.240216 0.029453
v -0.125833 0.233278 0.020888
v -0.131642 0.229360 0.007538
v -0.131642 0.229360 -0.007538
v -0.125833 0.233278 -0.020888
v -0.115546 0.240216 -0.029453
v -0.103138 0.248586 -0.031270
v -0.091451 0.256469 -0.025924
v -0.083162 0.262059 -0.014639
v -0.098891 0.292393 0.000000
v -0.101869 0.290066 0.015336
v -0.110123 0.283617 0.027158
v -0.121761 0.274525 0.032759
v -0.134116 0.264872 0.030856
v -0.144360 0.256869 0.021883
v -0.150144 0.252350 0.007897
v -0.150144 0.252350 -0.007897
v -0.144360 0.256869 -0.021883
v -0.134116 0.264872 -0.030856
v -0.121761 0.274525 -0.032759
v -0.110123 0.283617 -0.027158
v -0.101869 0.290066 -0.015336
v -0.119607 0.319414 0.000000
v -0.122544 0.316770 0.016033
v -0.130682 0.309443 0.028393
v -0.142156 0.299112 0.034248
v -0.154337 0.288143 0.032258
v -0.164437 0.279050 0.022878
v -0.170139 0.273915 0.008256
v -0.170139 0.273915 -0.008256
v -0.164437 0.279050 -0.022878
v -0.154337 0.288143 -0.032258
v -0.142156 0.299112 -0.034248
v -0.130682 0.309443 -0.028393
v -0.122544 0.316770 -0.016033
v -0.142231 0.345000 0.000000
v -0.145096 0.342034 0.016730
v -0.153033 0.333815 0.029627
v -0.164225 0.322225 0.035738
v -0.176107 0.309921 0.033661
v -0.185958 0.299720 0.023872
v -0.191520 0.293960 0.008615
v -0.191520 0.293960 -0.008615
v -0.185958 0.299720 -0.023872
v -0.176107 0.309921 -0.033661
v -0.164225 0.322225 -0.035738
v -0.153033 0.333815 -0.029627
v -0.145096 0.342034 -0.016730
v 0.036733 0.172850 0.000000
v 0.039601 0.171692 0.012548
v 0.047546 0.168481 0.022221
v 0.058750 0.163955 0.026803
v 0.070645 0.159149 0.025245
v 0.080506 0.155165 0.017904
v 0.086074 0.152915 0.006462
v 0.086074 0.152915 -0.006462
v 0.080506 0.155165 -0.017904
v 0.070645 0.159149 -0.025245
v 0.058750 0.163955 -0.026803
v 0.047546 0.168481 -0.022221
v 0.039601 0.171692 -0.012548
v 0.049029 0.204152 0.000000
v 0.051963 0.202721 0.013245
v 0.060093 0.198756 0.023455
v 0.071557 0.193165 0.028292
v 0.083728 0.187229 0.026648
v 0.093818 0.182307 0.018899
v 0.099516 0.179528 0.006820
v 0.099516 0.179528 -0.006820
v 0.093818 0.182307 -0.018899
v 0.083728 0.187229 -0.026648
v 0.071557 0.193165 -0.028292
v 0.060093 0.198756 -0.023455
v 0.051963 0.202721 -0.013245
v 0.063528 0.234613 0.000000
v 0.066504 0.232895 0.013942
v 0.074750 0.228134 0.024690
v 0.086377 0.221421 0.029781
v 0.098721 0.214294 0.028050
v 0.108955 0.208385 0.019894
v 0.114734 0.205049 0.007179
v 0.114734 0.205049 -0.007179
v 0.108955 0.208385 -0.019894
v 0.098721 0.214294 -0.028050
v 0.086377 0.221421 -0.029781
v 0.074750 0.228134 -0.024690
v 0.066504 0.232895 -0.013942
v 0.080171 0.264077 0.000000
v 0.083162 0.262059 0.014639
v 0.091451 0.256469 0.025924
v 0.103138 0.248586 0.031270
v 0.115546 0.240216 0.029453
v 0.125833 0.233278 0.020888
v 0.131642 0.229360 0.007538
v 0.131642 0.229360 -0.007538
v 0.125833 0.233278 -0.020888
v 0.115546 0.240216 -0.029453
v 0.103138 0.248586 -0.031270
v 0.091451 0.256469 -0.025924
v 0.083162 0.262059 -0.014639
v 0.098891 0.292393 0.000000
v 0.101869 0.290066 0.015336
v 0.110123 0.283617 0.027158
v 0.121761 0.274525 0.032759
v 0.134116 0.264872 0.030856
v 0.144360 0.256869 0.021883
v 0.150144 0.252350 0.007897
v 0.150144 0.252350 -0.007897
v 0.144360 0.256869 -0.021883
v 0.134116 0.264872 -0.030856
v 0.121761 0.274525 -0.032759
v 0.110123 0.283617 -0.027158
v 0.101869 0.290066 -0.015336
v 0.119607 0.319414 0.000000
v 0.122544 0.316770 0.016033
v 0.130682 0.309443 0.028393
v 0.142156 0.299112 0.034248
v 0.154337 0.288143 0.032258
v 0.164437 0.279050 0.022878
v 0.170139 0.273915 0.008256
v 0.170139 0.273915 -0.008256
v 0.164437 0.279050 -0.022878
v 0.154337 0.288143 -0.032258
v 0.142156 0.299112 -0.034248
v 0.130682 0.309443 -0.028393
v 0.122544 0.316770 -0.016033
v 0.142231 0.345000 0.000000
v 0.145096 0.342034 0.016730
v 0.153033 0.333815 0.029627
v 0.164225 0.322225 0.035738
v 0.176107 0.309921 0.033661
v 0.185958 0.299720 0.023872
v 0.191520 0.293960 0.008615
v 0.191520 0.293960 -0.008615
v 0.185958 0.299720 -0.023872
v 0.176107 0.309921 -0.033661
v 0.164225 0.322225 -0.035738
v 0.153033 0.333815 -0.029627
v 0.145096 0.342034 -0.016730
v -0.142231 0.345000 0.000000
v -0.145096 0.342034 0.016730
v -0.153033 0.333815 0.029627
v -0.164225 0.322225 0.035738
v -0.176107 0.309921 0.033661
v -0.185958 0.299720 0.023872
v -0.191520 0.293960 0.008615
v -0.191520 0.293960 -0.008615
v -0.185958 0.299720 -0.023872
v -0.176107 0.309921 -0.033661
v -0.164225 0.322225 -0.035738
v -0.153033 0.333815 -0.029627
v -0.145096 0.342034 -0.016730
v -0.153087 0.361502 0.000000
v -0.156180 0.358006 0.018937
v -0.164750 0.348319 0.033537
v -0.176834 0.334661 0.040453
v -0.189664 0.320159 0.038102
v -0.200300 0.308137 0.027022
v -0.206306 0.301349 0.009752
v -0.206306 0.301349 -0.009752
v -0.200300 0.308137 -0.027022
v -0.189664 0.320159 -0.038102
v -0.176834 0.334661 -0.040453
v -0.164750 0.348319 -0.033537
v -0.156180 0.358006 -0.018937
v -0.164810 0.377648 0.000000
v -0.168090 0.373598 0.021145
v -0.177178 0.362375 0.037446
v -0.189993 0.346550 0.045168
v -0.203598 0.329749 0.042543
v -0.214877 0.315821 0.030172
v -0.221246 0.307956 0.010889
v -0.221246 0.307956 -0.010889
v -0.214877 0.315821 -0.030172
v -0.203598 0.329749 -0.042543
v -0.189993 0.346550 -0.045168
v -0.177178 0.362375 -0.037446
v -0.168090 0.373598 -0.021145
v -0.177390 0.393395 0.000000
v -0.180814 0.388768 0.023352
v -0.190301 0.375947 0.041355
v -0.203677 0.357870 0.049884
v -0.217879 0.338677 0.046985
v -0.229653 0.322766 0.033322
v -0.236301 0.313781 0.012026
v -0.236301 0.313781 -0.012026
v -0.229653 0.322766 -0.033322
v -0.217879 0.338677 -0.046985
v -0.203677 0.357870 -0.049884
v -0.190301 0.375947 -0.041355
v -0.180814 0.388768 -0.023352
v -0.190815 0.408697 0.000000
v -0.194337 0.403475 0.025560
v -0.204099 0.389002 0.045264
v -0.217863 0.368596 0.054599
v -0.232476 0.346931 0.051426
v -0.244591 0.328970 0.036472
v -0.251432 0.318828 0.013162
v -0.251432 0.318828 -0.013162
v -0.244591 0.328970 -0.036472
v -0.232476 0.346931 -0.051426
v -0.217863 0.368596 -0.054599
v -0.204099 0.389002 -0.045264
v -0.194337 0.403475 -0.025560
v -0.205068 0.423512 0.000000
v -0.208644 0.417676 0.027767
v -0.218553 0.401507 0.049173
v -0.232524 0.378707 0.059314
v -0.247358 0.354501 0.055867
v -0.259655 0.334434 0.039622
v -0.266599 0.323102 0.014299
v -0.266599 0.323102 -0.014299
v -0.259655 0.334434 -0.039622
v -0.247358 0.354501 -0.055867
v -0.232524 0.378707 -0.059314
v -0.218553 0.401507 -0.049173
v -0.208644 0.417676 -0.027767
v -0.220133 0.437795 0.000000
v -0.223715 0.431333 0.029975
v -0.233640 0.413428 0.053082
v -0.247634 0.388182 0.064030
v -0.262492 0.361378 0.060309
v -0.274809 0.339156 0.042771
v -0.281765 0.326608 0.015436
v -0.281765 0.326608 -0.015436
v -0.274809 0.339156 -0.042771
v -0.262492 0.361378 -0.060309
v -0.247634 0.388182 -0.064030
v -0.233640 0.413428 -0.053082
v -0.223715 0.431333 -0.029975
v -0.235990 0.451504 0.000000
v -0.239529 0.444405 0.032182
v -0.249336 0.424735 0.056992
v -0.263165 0.397000 0.068745
v -0.277846 0.367553 0.064750
v -0.290018 0.343141 0.045921
v -0.296891 0.329356 0.016573
v -0.296891 0.329356 -0.016573
v -0.290018 0.343141 -0.045921
v -0.277846 0.367553 -0.064750
v -0.263165 0.397000 -0.068745
v -0.249336 0.424735 -0.056992
v -0.239529 0.444405 -0.032182
v -0.252617 0.464596 0.000000
v -0.256065 0.456853 0.034390
v -0.265618 0.435396 0.060901
v -0.279088 0.405143 0.073460
v -0.293389 0.373022 0.069191
v -0.305245 0.346393 0.049071
v -0.311940 0.331356 0.017709
v -0.311940 0.331356 -0.017709
v -0.305245 0.346393 -0.049071
v -0.293389 0.373022 -0.069191
v -0.279088 0.405143 -0.073460
v -0.265618 0.435396 -0.060901
v -0.256065 0.456853 -0.034390
v 0.142231 0.345000 0.000000
v 0.145096 0.342034 0.016730
v 0.153033 0.333815 0.029627
v 0.164225 0.322225 0.035738
v 0.176107 0.309921 0.033661
v 0.185958 0.299720 0.023872
v 0.191520 0.293960 0.008615
v 0.191520 0.293960 -0.008615
v 0.185958 0.299720 -0.023872
v 0.176107 0.309921 -0.033661
v 0.164225 0.322225 -0.035738
v 0.153033 0.333815 -0.029627
v 0.145096 0.342034 -0.016730
v 0.153087 0.361502 0.000000
v 0.156180 0.358006 0.018937
v 0.164750 0.348319 0.033537
v 0.176834 0.334661 0.040453
v 0.189664 0.320159 0.038102
v 0.200300 0.308137 0.027022
v 0.206306 0.301349 0.009752
v 0.206306 0.301349 -0.009752
v 0.200300 0.308137 -0.027022
v 0.189664 0.320159 -0.038102
v 0.176834 0.334661 -0.040453
v 0.164750 0.348319 -0.033537
v 0.156180 0.358006 -0.018937
v 0.164810 0.377648 0.000000
v 0.168090 0.373598 0.021145
v 0.177178 0.362375 0.037446
v 0.189993 0.346550 0.045168
v 0.203598 0.329749 0.042543
v 0.214877 0.315821 0.030172
v 0.221246 0.307956 0.010889
v 0.221246 0.307956 -0.010889
v 0.214877 0.315821 -0.030172
v 0.203598 0.329749 -0.042543
v 0.189993 0.346550 -0.045168
v 0.177178 0.362375 -0.037446
v 0.168090 0.373598 -0.021145
v 0.177390 0.393395 0.000000
v 0.180814 0.388768 0.023352
v 0.190301 0.375947 0.041355
v 0.203677 0.357870 0.049884
v 0.217879 0.338677 0.046985
v 0.229653 0.322766 0.033322
v 0.236301 0.313781 0.012026
v 0.236301 0.313781 -0.012026
v 0.229653 0.322766 -0.033322
v 0.217879 0.338677 -0.046985
v 0.203677 0.357870 -0.049884
v 0.190301 0.375947 -0.041355
v 0.180814 0.388768 -0.023352
v 0.190815 0.408697 0.000000
v 0.194337 0.403475 0.025560
v 0.204099 0.389002 0.045264
v 0.217863 0.368596 0.054599
v 0.232476 0.346931 0.051426
v 0.244591 0.328970 0.036472
v 0.251432 0.318828 0.013162
v 0.251432 0.318828 -0.013162
v 0.244591 0.328970 -0.036472
v 0.232476 0.346931 -0.051426
v 0.217863 0.368596 -0.054599
v 0.204099 0.389002 -0.045264
v 0.194337 0.403475 -0.025560
v 0.205068 0.423512 0.000000
v 0.208644 0.417676 0.027767
v 0.218553 0.401507 0.049173
v 0.232524 0.378707 0.059314
v 0.247358 0.354501 0.055867
v 0.259655 0.334434 0.039622
v 0.266599 0.323102 0.014299
v 0.266599 0.323102 -0.014299
v 0.259655 0.334434 -0.039622
v 0.247358 0.354501 -0.055867
v 0.232524 0.378707 -0.059314
v 0.218553 0.401507 -0.049173
v 0.208644 0.417676 -0.027767
v 0.220133 0.437795 0.000000
v 0.223715 0.431333 0.029975
v 0.233640 0.413428 0.053082
v 0.247634 0.388182 0.064030
v 0.262492 0.361378 0.060309
v 0.274809 0.339156 0.042771
v 0.281765 0.326608 0.015436
v 0.281765 0.326608 -0.015436
v 0.274809 0.339156 -0.042771
v 0.262492 0.361378 -0.060309
v 0.247634 0.388182 -0.064030
v 0.233640 0.413428 -0.053082
v 0.223715 0.431333 -0.029975
v 0.235990 0.451504 0.000000
v 0.239529 0.444405 0.032182
v 0.249336 0.424735 0.056992
v 0.263165 0.397000 0.068745
v 0.277846 0.367553 0.064750
v 0.290018 0.343141 0.045921
v 0.296891 0.329356 0.016573
v 0.296891 0.329356 -0.016573
v 0.290018 0.343141 -0.045921
v 0.277846 0.367553 -0.064750
v 0.263165 0.397000 -0.068745
v 0.249336 0.424735 -0.056992
v 0.239529 0.444405 -0.032182
v 0.252617 0.464596 0.000000
v 0.256065 0.456853 0.034390
v 0.265618 0.435396 0.060901
v 0.279088 0.405143 0.073460
v 0.293389 0.373022 0.069191
v 0.305245 0.346393 0.049071
v 0.311940 0.331356 0.017709
v 0.311940 0.331356 -0.017709
v 0.305245 0.346393 -0.049071
v 0.293389 0.373022 -0.069191
v 0.279088 0.405143 -0.073460
v 0.265618 0.435396 -0.060901
v 0.256065 0.456853 -0.034390
v 0.058343 0.004949 -0.034092
v 0.058331 0.006032 -0.035249
v 0.059788 0.006055 -0.034102
v 0.058339 0.005262 -0.034906
v 0.059178 0.005413 -0.034759
v 0.059361 0.006044 -0.034913
v 0.059369 0.005279 -0.034095
v 0.057608 0.081842 -0.035861
v 0.057599 0.082943 -0.034722
v 0.059065 0.081865 -0.034714
v 0.057601 0.082617 -0.035531
v 0.058443 0.082484 -0.035382
v 0.058631 0.082633 -0.034720
v 0.058638 0.081854 -0.035526
v 0.058400 0.005593 0.045609
v 0.059846 0.006699 0.045599
v 0.058391 0.006695 0.046749
v 0.059427 0.005923 0.045606
v 0.059237 0.006068 0.046268
v 0.059420 0.006702 0.046412
v 0.058398 0.005920 0.046419
v 0.057656 0.083587 0.044980
v 0.057667 0.082505 0.046136
v 0.059123 0.082509 0.044987
v 0.057660 0.083274 0.045794
v 0.058502 0.083139 0.045645
v 0.058697 0.082512 0.045799
v 0.058689 0.083277 0.044981
v -0.042741 0.003986 -0.034011
v -0.044207 0.005064 -0.034019
v -0.042752 0.005068 -0.035168
v -0.043773 0.004296 -0.034013
v -0.043586 0.004434 -0.034677
v -0.043781 0.005061 -0.034831
v -0.042744 0.004299 -0.034826
v -0.043484 0.081980 -0.034641
v -0.043475 0.080879 -0.035780
v -0.044930 0.080874 -0.034631
v -0.043482 0.081653 -0.035450
v -0.044321 0.081505 -0.035300
v -0.044504 0.080871 -0.035443
v -0.044511 0.081650 -0.034638
v -0.042683 0.004630 0.045690
v -0.042693 0.005731 0.046829
v -0.044150 0.005708 0.045682
v -0.042686 0.004956 0.046499
v -0.043528 0.005089 0.046350
v -0.043723 0.005719 0.046494
v -0.043716 0.004940 0.045688
v -0.043427 0.082624 0.045060
v -0.044873 0.081518 0.045070
v -0.043416 0.081541 0.046217
v -0.044454 0.082294 0.045063
v -0.044263 0.082160 0.045727
v -0.044446 0.081529 0.045881
v -0.043423 0.082311 0.045874
v 0.066457 0.147596 -0.013565
v 0.066460 0.147833 -0.013777
v 0.068470 0.147803 -0.013573
v 0.066457 0.147665 -0.013714
v 0.067618 0.147678 -0.013691
v 0.067881 0.147812 -0.013719
v 0.067878 0.147644 -0.013570
v 0.066714 0.164355 -0.013859
v 0.066718 0.164594 -0.013650
v 0.068724 0.164325 -0.013655
v 0.066717 0.164524 -0.013798
v 0.067876 0.164475 -0.013774
v 0.068138 0.164502 -0.013654
v 0.068135 0.164333 -0.013801
v 0.066501 0.147668 0.001014
v 0.068514 0.147875 0.001007
v 0.066505 0.147907 0.001223
v 0.067923 0.147716 0.001010
v 0.067663 0.147751 0.001132
v 0.067926 0.147885 0.001157
v 0.066502 0.147738 0.001162
v 0.066762 0.164666 0.000930
v 0.066759 0.164429 0.001141
v 0.068768 0.164397 0.000925
v 0.066762 0.164597 0.001079
v 0.067921 0.164548 0.001048
v 0.068180 0.164407 0.001075
v 0.068182 0.164574 0.000926
v -0.073042 0.149745 -0.013154
v -0.075048 0.150014 -0.013149
v -0.073039 0.149982 -0.013365
v -0.074462 0.149837 -0.013150
v -0.074201 0.149863 -0.013272
v -0.074460 0.150004 -0.013300
v -0.073041 0.149814 -0.013303
v -0.072780 0.166743 -0.013239
v -0.072785 0.166504 -0.013447
v -0.074793 0.166536 -0.013231
v -0.072782 0.166673 -0.013387
v -0.073942 0.166660 -0.013356
v -0.074205 0.166526 -0.013382
v -0.074202 0.166695 -0.013234
v -0.072998 0.149817 0.001426
v -0.072994 0.150056 0.001634
v -0.075003 0.150086 0.001430
v -0.072996 0.149887 0.001574
v -0.074156 0.149936 0.001550
v -0.074415 0.150078 0.001577
v -0.074418 0.149909 0.001429
v -0.072736 0.166815 0.001341
v -0.074749 0.166608 0.001348
v -0.072739 0.166578 0.001552
v -0.074158 0.166767 0.001346
v -0.073898 0.166733 0.001466
v -0.074160 0.166599 0.001495
v -0.072737 0.166746 0.001490
vn -0.9540 -0.1808 -0.2393
vn -0.7364 -0.1344 -0.6631
vn -0.3509 -0.0522 -0.9350
vn 0.1141 0.0470 -0.9924
vn 0.5515 0.1405 -0.8222
vn 0.8614 0.2067 -0.4640
vn 0.9730 0.2306 -0.0000
vn 0.8610 0.2068 0.4647
vn 0.5504 0.1406 0.8230
vn 0.1125 0.0471 0.9925
vn -0.3523 -0.0521 0.9345
vn -0.7371 -0.1343 0.6624
vn -0.9541 -0.1807 0.2389
vn -0.9390 -0.2469 -0.2393
vn -0.7252 -0.1855 -0.6631
vn -0.3464 -0.0765 -0.9350
vn 0.1105 0.0549 -0.9924
vn 0.5404 0.1786 -0.8222
vn 0.8448 0.2663 -0.4640
vn 0.9546 0.2980 -0.0000
vn 0.8444 0.2664 0.4647
vn 0.5392 0.1787 0.8230
vn 0.1089 0.0549 0.9925
vn -0.3478 -0.0765 0.9345
vn -0.7259 -0.1854 0.6624
vn -0.9391 -0.2468 0.2389
vn -0.9195 -0.3118 -0.2393
vn -0.7105 -0.2356 -0.6631
vn -0.3402 -0.1005 -0.9350
vn 0.1064 0.0624 -0.9924
vn 0.5266 0.2159 -0.8222
vn 0.8242 0.3246 -0.4640
vn 0.9314 0.3639 -0.0000
vn 0.8238 0.3247 0.4647
vn 0.5255 0.2159 0.8230
vn 0.1048 0.0623 0.9925
vn -0.3416 -0.1006 0.9345
vn -0.7112 -0.2356 0.6624
vn -0.9196 -0.3118 0.2389
vn 0.9540 -0.1808 -0.2393
vn 0.7364 -0.1344 -0.6631
vn 0.3509 -0.0522 -0.9350
vn -0.1141 0.0470 -0.9924
vn -0.5515 0.1405 -0.8222
vn -0.8614 0.2067 -0.4640
vn -0.9730 0.2306 -0.0000
vn -0.8614 0.2067 0.4640
vn -0.5515 0.1405 0.8222
vn -0.1141 0.0470 0.9924
vn 0.3509 -0.0522 0.9350
vn 0.7364 -0.1344 0.6631
vn 0.9540 -0.1808 0.2393
vn 0.9390 -0.2469 -0.2393
vn 0.7252 -0.1855 -0.6631
vn 0.3464 -0.0765 -0.9350
vn -0.1105 0.0549 -0.9924
vn -0.5404 0.1786 -0.8222
vn -0.8448 0.2663 -0.4640
vn -0.9546 0.2980 -0.0000
vn -0.8448 0.2663 0.4640
vn -0.5404 0.1786 0.8222
vn -0.1105 0.0549 0.9924
vn 0.3464 -0.0765 0.9350
vn 0.7252 -0.1855 0.6631
vn 0.9390 -0.2469 0.2393
vn 0.9195 -0.3118 -0.2393
vn 0.7105 -0.2356 -0.6631
vn 0.3402 -0.1005 -0.9350
vn -0.1064 0.0624 -0.9924
vn -0.5266 0.2159 -0.8222
vn -0.8242 0.3246 -0.4640
vn -0.9314 0.3639 -0.0000
vn -0.8242 0.3246 0.4640
vn -0.5266 0.2159 0.8222
vn -0.1064 0.0624 0.9924
vn 0.3402 -0.1005 0.9350
vn 0.7105 -0.2356 0.6631
vn 0.9195 -0.3118 0.2393
vn -0.8949 -0.3768 -0.2393
vn -0.6899 -0.2905 -0.6631
vn -0.3268 -0.1376 -0.9350
vn 0.1111 0.0468 -0.9927
vn 0.5236 0.2205 -0.8230
vn 0.8161 0.3436 -0.4647
vn 0.9216 0.3881 -0.0000
vn 0.8161 0.3436 0.4647
vn 0.5236 0.2205 0.8230
vn 0.1111 0.0468 0.9927
vn -0.3268 -0.1376 0.9350
vn -0.6899 -0.2905 0.6631
vn -0.8949 -0.3768 0.2393
vn -0.8835 -0.4026 -0.2393
vn -0.6811 -0.3104 -0.6631
vn -0.3227 -0.1471 -0.9350
vn 0.1097 0.0500 -0.9927
vn 0.5170 0.2356 -0.8230
vn 0.8057 0.3672 -0.4647
vn 0.9100 0.4147 -0.0000
vn 0.8057 0.3672 0.4647
vn 0.5170 0.2356 0.8230
vn 0.1097 0.0500 0.9927
vn -0.3227 -0.1471 0.9350
vn -0.6811 -0.3104 0.6631
vn -0.8835 -0.4026 0.2393
vn -0.8714 -0.4282 -0.2393
vn -0.6718 -0.3301 -0.6631
vn -0.3183 -0.1564 -0.9350
vn 0.1082 0.0532 -0.9927
vn 0.5099 0.2505 -0.8230
vn 0.7947 0.3905 -0.4647
vn 0.8975 0.4410 -0.0000
vn 0.7947 0.3905 0.4647
vn 0.5099 0.2505 0.8230
vn 0.1082 0.0532 0.9927
vn -0.3183 -0.1564 0.9350
vn -0.6718 -0.3301 0.6631
vn -0.8714 -0.4282 0.2393
vn 0.8949 -0.3768 -0.2393
vn 0.6899 -0.2905 -0.6631
vn 0.3268 -0.1376 -0.9350
vn -0.1111 0.0468 -0.9927
vn -0.5236 0.2205 -0.8230
vn -0.8161 0.3436 -0.4647
vn -0.9216 0.3881 -0.0000
vn -0.8161 0.3436 0.4647
vn -0.5236 0.2205 0.8230
vn -0.1111 0.0468 0.9927
vn 0.3268 -0.1376 0.9350
vn 0.6899 -0.2905 0.6631
vn 0.8949 -0.3768 0.2393
vn 0.8835 -0.4026 -0.2393
vn 0.6811 -0.3104 -0.6631
vn 0.3227 -0.1471 -0.9350
vn -0.1097 0.0500 -0.9927
vn -0.5170 0.2356 -0.8230
vn -0.8057 0.3672 -0.4647
vn -0.9100 0.4147 -0.0000
vn -0.8057 0.3672 0.4647
vn -0.5170 0.2356 0.8230
vn -0.1097 0.0500 0.9927
vn 0.3227 -0.1471 0.9350
vn 0.6811 -0.3104 0.6631
vn 0.8835 -0.4026 0.2393
vn 0.8714 -0.4282 -0.2393
vn 0.6718 -0.3301 -0.6631
vn 0.3183 -0.1564 -0.9350
vn -0.1082 0.0532 -0.9927
vn -0.5099 0.2505 -0.8230
vn -0.7947 0.3905 -0.4647
vn -0.8975 0.4410 -0.0000
vn -0.7947 0.3905 0.4647
vn -0.5099 0.2505 0.8230
vn -0.1082 0.0532 0.9927
vn 0.3183 -0.1564 0.9350
vn 0.6718 -0.3301 0.6631
vn 0.8714 -0.4282 0.2393
vn -0.9037 -0.3550 -0.2393
vn -0.7004 -0.2642 -0.6630
vn -0.3406 -0.1031 -0.9345
vn 0.0930 0.0913 -0.9915
vn 0.5005 0.2742 -0.8211
vn 0.7888 0.4039 -0.4633
vn 0.8926 0.4508 -0.0000
vn 0.7879 0.4042 0.4646
vn 0.4979 0.2744 0.8227
vn 0.0895 0.0912 0.9918
vn -0.3436 -0.1031 0.9334
vn -0.7020 -0.2640 0.6615
vn -0.9040 -0.3548 0.2386
vn -0.8767 -0.4173 -0.2393
vn -0.6803 -0.3125 -0.6630
vn -0.3326 -0.1266 -0.9345
vn 0.0864 0.0975 -0.9915
vn 0.4801 0.3085 -0.8211
vn 0.7587 0.4580 -0.4633
vn 0.8589 0.5122 -0.0000
vn 0.7577 0.4583 0.4646
vn 0.4775 0.3086 0.8227
vn 0.0829 0.0973 0.9918
vn -0.3356 -0.1268 0.9334
vn -0.6818 -0.3124 0.6615
vn -0.8770 -0.4171 0.2386
vn -0.8454 -0.4775 -0.2393
vn -0.6567 -0.3593 -0.6630
vn -0.3229 -0.1496 -0.9345
vn 0.0794 0.1033 -0.9915
vn 0.4574 0.3413 -0.8211
vn 0.7248 0.5099 -0.4633
vn 0.8210 0.5710 -0.0000
vn 0.7237 0.5102 0.4646
vn 0.4548 0.3412 0.8226
vn 0.0759 0.1029 0.9918
vn -0.3259 -0.1499 0.9334
vn -0.6583 -0.3592 0.6615
vn -0.8457 -0.4774 0.2386
vn -0.8099 -0.5355 -0.2393
vn -0.6300 -0.4043 -0.6630
vn -0.3116 -0.1718 -0.9345
vn 0.0720 0.1086 -0.9915
vn 0.4325 0.3724 -0.8211
vn 0.6874 0.5594 -0.4633
vn 0.7790 0.6270 -0.0000
vn 0.6863 0.5596 0.4646
vn 0.4298 0.3722 0.8226
vn 0.0685 0.1080 0.9918
vn -0.3146 -0.1723 0.9334
vn -0.6316 -0.4043 0.6615
vn -0.8103 -0.5353 0.2386
vn -0.7705 -0.5908 -0.2393
vn -0.6002 -0.4474 -0.6630
vn -0.2988 -0.1932 -0.9345
vn 0.0642 0.1133 -0.9915
vn 0.4054 0.4017 -0.8211
vn 0.6466 0.6060 -0.4633
vn 0.7333 0.6799 -0.0000
vn 0.6455 0.6062 0.4646
vn 0.4027 0.4014 0.8226
vn 0.0607 0.1125 0.9918
vn -0.3018 -0.1938 0.9334
vn -0.6018 -0.4475 0.6615
vn -0.7709 -0.5906 0.2386
vn -0.7274 -0.6432 -0.2393
vn -0.5675 -0.4882 -0.6630
vn -0.2846 -0.2136 -0.9345
vn 0.0562 0.1175 -0.9915
vn 0.3763 0.4291 -0.8211
vn 0.6027 0.6498 -0.4632
vn 0.6840 0.7295 -0.0000
vn 0.6015 0.6499 0.4646
vn 0.3736 0.4286 0.8226
vn 0.0527 0.1165 0.9918
vn -0.2876 -0.2144 0.9334
vn -0.5691 -0.4884 0.6615
vn -0.7277 -0.6430 0.2386
vn 0.9037 -0.3550 -0.2393
vn 0.7004 -0.2642 -0.6630
vn 0.3406 -0.1031 -0.9345
vn -0.0930 0.0913 -0.9915
vn -0.5005 0.2742 -0.8211
vn -0.7888 0.4039 -0.4633
vn -0.8926 0.4508 -0.0000
vn -0.7888 0.4039 0.4633
vn -0.5005 0.2742 0.8211
vn -0.0930 0.0913 0.9915
vn 0.3406 -0.1031 0.9345
vn 0.7004 -0.2642 0.6630
vn 0.9037 -0.3550 0.2393
vn 0.8767 -0.4173 -0.2393
vn 0.6803 -0.3125 -0.6630
vn 0.3326 -0.1266 -0.9345
vn -0.0864 0.0975 -0.9915
vn -0.4801 0.3085 -0.8211
vn -0.7587 0.4580 -0.4633
vn -0.8589 0.5122 -0.0000
vn -0.7587 0.4580 0.4633
vn -0.4801 0.3085 0.8211
vn -0.0864 0.0975 0.9915
vn 0.3326 -0.1266 0.9345
vn 0.6803 -0.3125 0.6630
vn 0.8767 -0.4173 0.2393
vn 0.8454 -0.4775 -0.2393
vn 0.6567 -0.3593 -0.6630
vn 0.3229 -0.1496 -0.9345
vn -0.0794 0.1033 -0.9915
vn -0.4574 0.3413 -0.8211
vn -0.7248 0.5099 -0.4633
vn -0.8210 0.5710 -0.0000
vn -0.7248 0.5099 0.4633
vn -0.4574 0.3413 0.8211
vn -0.0794 0.1033 0.9915
vn 0.3229 -0.1496 0.9345
vn 0.6567 -0.3593 0.6630
vn 0.8454 -0.4775 0.2393
vn 0.8099 -0.5355 -0.2393
vn 0.6300 -0.4043 -0.6630
vn 0.3116 -0.1718 -0.9345
vn -0.0720 0.1086 -0.9915
vn -0.4325 0.3724 -0.8211
vn -0.6874 0.5594 -0.4633
vn -0.7790 0.6270 -0.0000
vn -0.6874 0.5594 0.4633
vn -0.4325 0.3724 0.8211
vn -0.0720 0.1086 0.9915
vn 0.3116 -0.1718 0.9345
vn 0.6300 -0.4043 0.6630
vn 0.8099 -0.5355 0.2393
vn 0.7705 -0.5908 -0.2393
vn 0.6002 -0.4474 -0.6630
vn 0.2988 -0.1932 -0.9345
vn -0.0642 0.1133 -0.9915
vn -0.4054 0.4017 -0.8211
vn -0.6466 0.6060 -0.4633
vn -0.7333 0.6799 -0.0000
vn -0.6466 0.6060 0.4633
vn -0.4054 0.4017 0.8211
vn -0.0642 0.1133 0.9915
vn 0.2988 -0.1932 0.9345
vn 0.6002 -0.4474 0.6630
vn 0.7705 -0.5908 0.2393
vn 0.7274 -0.6432 -0.2393
vn 0.5675 -0.4882 -0.6630
vn 0.2846 -0.2136 -0.9345
vn -0.0562 0.1175 -0.9915
vn -0.3763 0.4291 -0.8211
vn -0.6027 0.6498 -0.4632
vn -0.6840 0.7295 -0.0000
vn -0.6027 0.6498 0.4632
vn -0.3763 0.4291 0.8211
vn -0.0562 0.1175 0.9915
vn 0.2846 -0.2136 0.9345
vn 0.5675 -0.4882 0.6630
vn 0.7274 -0.6432 0.2393
vn -0.8123 -0.5344 -0.2338
vn -0.6655 -0.3724 -0.6469
vn -0.4083 -0.0849 -0.9089
vn -0.1020 0.2606 -0.9600
vn 0.1817 0.5838 -0.7913
vn 0.3788 0.8117 -0.4446
vn 0.4470 0.8945 -0.0000
vn 0.3716 0.8127 0.4487
vn 0.1680 0.5836 0.7945
vn -0.1179 0.2597 0.9585
vn -0.4212 -0.0846 0.9030
vn -0.6725 -0.3706 0.6407
vn -0.8140 -0.5329 0.2313
vn -0.7868 -0.5712 -0.2339
vn -0.6472 -0.4028 -0.6472
vn -0.4032 -0.1037 -0.9092
vn -0.1130 0.2557 -0.9601
vn 0.1551 0.5918 -0.7910
vn 0.3407 0.8286 -0.4442
vn 0.4044 0.9146 -0.0000
vn 0.3328 0.8296 0.4483
vn 0.1403 0.5916 0.7939
vn -0.1299 0.2549 0.9582
vn -0.4168 -0.1032 0.9031
vn -0.6547 -0.4007 0.6409
vn -0.7886 -0.5696 0.2314
vn -0.7596 -0.6068 -0.2341
vn -0.6276 -0.4322 -0.6475
vn -0.3973 -0.1221 -0.9095
vn -0.1238 0.2503 -0.9602
vn 0.1282 0.5985 -0.7908
vn 0.3019 0.8437 -0.4439
vn 0.3609 0.9326 -0.0000
vn 0.2930 0.8447 0.4479
vn 0.1121 0.5983 0.7934
vn -0.1418 0.2496 0.9579
vn -0.4117 -0.1215 0.9032
vn -0.6357 -0.4299 0.6412
vn -0.7617 -0.6052 0.2316
vn -0.7308 -0.6411 -0.2342
vn -0.6067 -0.4607 -0.6478
vn -0.3905 -0.1403 -0.9098
vn -0.1344 0.2445 -0.9603
vn 0.1010 0.6040 -0.7905
vn 0.2624 0.8570 -0.4435
vn 0.3164 0.9486 -0.0000
vn 0.2526 0.8579 0.4474
vn 0.0836 0.6037 0.7928
vn -0.1535 0.2438 0.9576
vn -0.4058 -0.1395 0.9033
vn -0.6153 -0.4583 0.6414
vn -0.7331 -0.6394 0.2317
vn -0.7006 -0.6740 -0.2343
vn -0.5846 -0.4881 -0.6481
vn -0.3829 -0.1581 -0.9102
vn -0.1446 0.2382 -0.9604
vn 0.0736 0.6083 -0.7903
vn 0.2223 0.8685 -0.4431
vn 0.2712 0.9625 -0.0000
vn 0.2114 0.8692 0.4470
vn 0.0548 0.6078 0.7922
vn -0.1649 0.2374 0.9573
vn -0.3990 -0.1573 0.9034
vn -0.5937 -0.4856 0.6416
vn -0.7031 -0.6722 0.2318
vn -0.6689 -0.7055 -0.2344
vn -0.5612 -0.5145 -0.6484
vn -0.3745 -0.1754 -0.9105
vn -0.1546 0.2315 -0.9605
vn 0.0460 0.6114 -0.7900
vn 0.1816 0.8781 -0.4427
vn 0.2253 0.9743 -0.0000
vn 0.1697 0.8786 0.4465
vn 0.0257 0.6105 0.7916
vn -0.1761 0.2305 0.9570
vn -0.3915 -0.1747 0.9034
vn -0.5709 -0.5120 0.6419
vn -0.6716 -0.7037 0.2319
vn -0.6358 -0.7354 -0.2345
vn -0.5366 -0.5397 -0.6487
vn -0.3654 -0.1924 -0.9108
vn -0.1642 0.2244 -0.9606
vn 0.0182 0.6132 -0.7897
vn 0.1405 0.8858 -0.4423
vn 0.1787 0.9839 -0.0000
vn 0.1274 0.8859 0.4460
vn -0.0035 0.6118 0.7910
vn -0.1870 0.2230 0.9567
vn -0.3832 -0.1918 0.9035
vn -0.5469 -0.5372 0.6421
vn -0.6388 -0.7336 0.2321
vn -0.6014 -0.7637 -0.2346
vn -0.5110 -0.5637 -0.6489
vn -0.3555 -0.2088 -0.9110
vn -0.1736 0.2169 -0.9606
vn -0.0097 0.6137 -0.7895
vn 0.0990 0.8916 -0.4419
vn 0.1317 0.9913 -0.0000
vn 0.0848 0.8913 0.4454
vn -0.0328 0.6118 0.7903
vn -0.1976 0.2151 0.9564
vn -0.3742 -0.2085 0.9036
vn -0.5218 -0.5613 0.6423
vn -0.6046 -0.7620 0.2322
vn 0.8123 -0.5344 -0.2338
vn 0.6655 -0.3724 -0.6469
vn 0.4083 -0.0849 -0.9089
vn 0.1020 0.2606 -0.9600
vn -0.1817 0.5838 -0.7913
vn -0.3788 0.8117 -0.4446
vn -0.4470 0.8945 -0.0000
vn -0.3788 0.8117 0.4446
vn -0.1817 0.5838 0.7913
vn 0.1020 0.2606 0.9600
vn 0.4083 -0.0849 0.9089
vn 0.6655 -0.3724 0.6469
vn 0.8123 -0.5344 0.2338
vn 0.7868 -0.5712 -0.2339
vn 0.6472 -0.4028 -0.6472
vn 0.4032 -0.1037 -0.9092
vn 0.1130 0.2557 -0.9601
vn -0.1551 0.5918 -0.7910
vn -0.3407 0.8286 -0.4442
vn -0.4044 0.9146 -0.0000
vn -0.3407 0.8286 0.4442
vn -0.1551 0.5918 0.7910
vn 0.1130 0.2557 0.9601
vn 0.4032 -0.1037 0.9092
vn 0.6472 -0.4028 0.6472
vn 0.7868 -0.5712 0.2339
vn 0.7596 -0.6068 -0.2341
vn 0.6276 -0.4322 -0.6475
vn 0.3973 -0.1221 -0.9095
vn 0.1238 0.2503 -0.9602
vn -0.1282 0.5985 -0.7908
vn -0.3019 0.8437 -0.4439
vn -0.3609 0.9326 -0.0000
vn -0.3019 0.8437 0.4439
vn -0.1282 0.5985 0.7908
vn 0.1238 0.2503 0.9602
vn 0.3973 -0.1221 0.9095
vn 0.6276 -0.4322 0.6475
vn 0.7596 -0.6068 0.2341
vn 0.7308 -0.6411 -0.2342
vn 0.6067 -0.4607 -0.6478
vn 0.3905 -0.1403 -0.9098
vn 0.1344 0.2445 -0.9603
vn -0.1010 0.6040 -0.7905
vn -0.2624 0.8570 -0.4435
vn -0.3164 0.9486 -0.0000
vn -0.2624 0.8570 0.4435
vn -0.1010 0.6040 0.7905
vn 0.1344 0.2445 0.9603
vn 0.3905 -0.1403 0.9098
vn 0.6067 -0.4607 0.6478
vn 0.7308 -0.6411 0.2342
vn 0.7006 -0.6740 -0.2343
vn 0.5846 -0.4881 -0.6481
vn 0.3829 -0.1581 -0.9102
vn 0.1446 0.2382 -0.9604
vn -0.0736 0.6083 -0.7903
vn -0.2223 0.8685 -0.4431
vn -0.2712 0.9625 -0.0000
vn -0.2223 0.8685 0.4431
vn -0.0736 0.6083 0.7903
vn 0.1446 0.2382 0.9604
vn 0.3829 -0.1581 0.9102
vn 0.5846 -0.4881 0.6481
vn 0.7006 -0.6740 0.2343
vn 0.6689 -0.7055 -0.2344
vn 0.5612 -0.5145 -0.6484
vn 0.3745 -0.1754 -0.9105
vn 0.1546 0.2315 -0.9605
vn -0.0460 0.6114 -0.7900
vn -0.1816 0.8781 -0.4427
vn -0.2253 0.9743 -0.0000
vn -0.1816 0.8781 0.4427
vn -0.0460 0.6114 0.7900
vn 0.1546 0.2315 0.9605
vn 0.3745 -0.1754 0.9105
vn 0.5612 -0.5145 0.6484
vn 0.6689 -0.7055 0.2344
vn 0.6358 -0.7354 -0.2345
vn 0.5366 -0.5397 -0.6487
vn 0.3654 -0.1924 -0.9108
vn 0.1642 0.2244 -0.9606
vn -0.0182 0.6132 -0.7897
vn -0.1405 0.8858 -0.4423
vn -0.1787 0.9839 -0.0000
vn -0.1405 0.8858 0.4423
vn -0.0182 0.6132 0.7897
vn 0.1642 0.2244 0.9606
vn 0.3654 -0.1924 0.9108
vn 0.5366 -0.5397 0.6487
vn 0.6358 -0.7354 0.2345
vn 0.6014 -0.7637 -0.2346
vn 0.5110 -0.5637 -0.6489
vn 0.3555 -0.2088 -0.9110
vn 0.1736 0.2169 -0.9606
vn 0.0097 0.6137 -0.7895
vn -0.0990 0.8916 -0.4419
vn -0.1317 0.9913 -0.0000
vn -0.0990 0.8916 0.4419
vn 0.0097 0.6137 0.7895
vn 0.1736 0.2169 0.9606
vn 0.3555 -0.2088 0.9110
vn 0.5110 -0.5637 0.6489
vn 0.6014 -0.7637 0.2346
vn 0.2936 -0.9170 -0.2702
vn 0.2270 -0.3942 -0.8906
vn 0.8319 -0.3469 -0.4332
vn 0.2923 0.2982 -0.9086
vn 0.2076 0.9074 -0.3654
vn 0.8209 0.4610 -0.3371
vn 0.2254 -0.9033 0.3650
vn 0.8300 -0.4453 0.3358
vn 0.2994 -0.2926 0.9082
vn 0.2765 0.9224 0.2697
vn 0.2209 0.3984 0.8902
vn 0.8258 0.3626 0.4319
vn -0.2081 -0.9132 -0.3504
vn -0.8213 -0.4664 -0.3284
vn -0.2936 -0.3128 -0.9033
vn -0.2940 0.9125 -0.2846
vn -0.2283 0.3797 -0.8965
vn -0.8325 0.3398 -0.4376
vn -0.2761 -0.9179 0.2850
vn -0.2196 -0.3840 0.8969
vn -0.8252 -0.3556 0.4389
vn -0.2249 0.9091 0.3507
vn -0.8296 0.4507 0.3297
vn -0.2981 0.3072 0.9037
vn 0.3058 -0.9521 0.0075
vn 0.8799 -0.4751 0.0032
vn 0.3097 -0.0047 -0.9508
vn 0.8849 0.0047 -0.4658
vn 0.2876 0.9577 -0.0079
vn 0.8707 0.4918 -0.0046
vn 0.3111 0.0106 0.9503
vn 0.8856 0.0122 0.4644
vn 0.0091 -0.9274 0.3741
vn 0.0045 -0.3918 0.9200
vn -0.0086 0.9333 0.3591
vn -0.0031 0.4066 0.9136
vn -0.8849 -0.0047 0.4658
vn -0.3098 0.0047 0.9508
vn -0.2876 -0.9577 0.0079
vn -0.8707 -0.4918 0.0046
vn -0.3058 0.9521 -0.0075
vn -0.8799 0.4751 -0.0032
vn -0.3111 -0.0106 -0.9503
vn -0.8856 -0.0122 -0.4644
vn 0.0086 -0.9333 -0.3591
vn 0.0031 -0.4066 -0.9136
vn -0.0091 0.9273 -0.3741
vn -0.0045 0.3918 -0.9200
vn 0.0095 -0.9999 0.0081
vn 1.0000 0.0095 -0.0008
vn -0.0007 -0.0081 -1.0000
vn -0.0095 0.9999 -0.0081
vn 0.0007 0.0081 1.0000
vn -1.0000 -0.0095 0.0008
vn 0.0306 -0.9421 -0.3340
vn 0.0231 -0.3482 -0.9372
vn 0.1736 -0.6565 -0.7341
vn 0.0429 0.2644 -0.9635
vn 0.0467 0.9020 -0.4292
vn 0.1937 0.6435 -0.7405
vn 0.0214 -0.9030 0.4291
vn 0.1781 -0.6492 0.7395
vn 0.0404 -0.2657 0.9632
vn 0.0616 0.9406 0.3338
vn 0.0393 0.3472 0.9370
vn 0.1981 0.6508 0.7330
vn -0.0493 -0.9062 -0.4201
vn -0.1981 -0.6508 -0.7330
vn -0.0487 -0.2739 -0.9605
vn -0.0327 0.9387 -0.3431
vn -0.0287 0.3389 -0.9404
vn -0.1781 0.6492 -0.7395
vn -0.0596 -0.9373 0.3434
vn -0.0336 -0.3379 0.9406
vn -0.1937 -0.6435 0.7405
vn -0.0189 0.9072 0.4203
vn -0.1736 0.6565 0.7341
vn -0.0346 0.2751 0.9608
vn 0.0336 -0.9994 0.0048
vn 0.2601 -0.9656 0.0040
vn 0.0402 -0.0056 -0.9992
vn 0.2417 -0.0085 -0.9703
vn 0.0644 0.9979 -0.0051
vn 0.2897 0.9571 -0.0056
vn 0.0463 0.0043 0.9989
vn 0.2475 0.0010 0.9689
vn -0.0126 -0.9030 0.4294
vn -0.0024 -0.3386 0.9409
vn 0.0152 0.9072 0.4204
vn 0.0081 0.3479 0.9375
vn -0.2417 0.0085 0.9703
vn -0.0402 0.0056 0.9992
vn -0.0644 -0.9979 0.0051
vn -0.2897 -0.9571 0.0056
vn -0.0336 0.9994 -0.0048
vn -0.2601 0.9656 -0.0040
vn -0.0463 -0.0043 -0.9989
vn -0.2475 -0.0010 -0.9689
vn -0.0152 -0.9072 -0.4204
vn -0.0081 -0.3478 -0.9375
vn 0.0126 0.9030 -0.4294
vn 0.0024 0.3386 -0.9409
vn -0.0154 -0.9999 0.0050
vn 0.9999 -0.0154 -0.0029
vn -0.0030 -0.0049 -1.0000
vn 0.0154 0.9999 -0.0050
vn 0.0030 0.0049 1.0000
vn -0.9999 0.0154 0.0029
vn -0.9541 -0.1807 -0.2389
vn -0.7371 -0.1343 -0.6624
vn -0.3523 -0.0521 -0.9345
vn 0.1125 0.0471 -0.9925
vn 0.5504 0.1406 -0.8230
vn 0.8610 0.2068 -0.4647
vn 0.8614 0.2067 0.4640
vn 0.5515 0.1405 0.8222
vn 0.1141 0.0470 0.9924
vn -0.3509 -0.0522 0.9350
vn -0.7364 -0.1344 0.6631
vn -0.9540 -0.1808 0.2393
vn -0.9391 -0.2468 -0.2389
vn -0.7259 -0.1854 -0.6624
vn -0.3478 -0.0765 -0.9345
vn 0.1089 0.0549 -0.9925
vn 0.5392 0.1787 -0.8230
vn 0.8444 0.2664 -0.4647
vn 0.8448 0.2663 0.4640
vn 0.5404 0.1786 0.8222
vn 0.1105 0.0549 0.9924
vn -0.3464 -0.0765 0.9350
vn -0.7252 -0.1855 0.6631
vn -0.9390 -0.2469 0.2393
vn -0.9196 -0.3118 -0.2389
vn -0.7112 -0.2356 -0.6624
vn -0.3416 -0.1006 -0.9345
vn 0.1048 0.0623 -0.9925
vn 0.5255 0.2159 -0.8230
vn 0.8238 0.3247 -0.4647
vn 0.8242 0.3246 0.4640
vn 0.5266 0.2159 0.8222
vn 0.1064 0.0624 0.9924
vn -0.3402 -0.1005 0.9350
vn -0.7105 -0.2356 0.6631
vn -0.9195 -0.3118 0.2393
vn 0.9541 -0.1807 -0.2389
vn 0.7371 -0.1343 -0.6624
vn 0.3523 -0.0521 -0.9345
vn -0.1125 0.0471 -0.9925
vn -0.5504 0.1406 -0.8230
vn -0.8610 0.2068 -0.4647
vn -0.8610 0.2068 0.4647
vn -0.5504 0.1406 0.8230
vn -0.1125 0.0471 0.9925
vn 0.3523 -0.0521 0.9345
vn 0.7371 -0.1343 0.6624
vn 0.9541 -0.1807 0.2389
vn 0.9391 -0.2468 -0.2389
vn 0.7259 -0.1854 -0.6624
vn 0.3478 -0.0765 -0.9345
vn -0.1089 0.0549 -0.9925
vn -0.5392 0.1787 -0.8230
vn -0.8444 0.2664 -0.4647
vn -0.8444 0.2664 0.4647
vn -0.5392 0.1787 0.8230
vn -0.1089 0.0549 0.9925
vn 0.3478 -0.0765 0.9345
vn 0.7259 -0.1854 0.6624
vn 0.9391 -0.2468 0.2389
vn 0.9196 -0.3118 -0.2389
vn 0.7112 -0.2356 -0.6624
vn 0.3416 -0.1006 -0.9345
vn -0.1048 0.0623 -0.9925
vn -0.5255 0.2159 -0.8230
vn -0.8238 0.3247 -0.4647
vn -0.8238 0.3247 0.4647
vn -0.5255 0.2159 0.8230
vn -0.1048 0.0623 0.9925
vn 0.3416 -0.1006 0.9345
vn 0.7112 -0.2356 0.6624
vn 0.9196 -0.3118 0.2389
vn -0.9040 -0.3548 -0.2386
vn -0.7020 -0.2640 -0.6615
vn -0.3436 -0.1031 -0.9334
vn 0.0895 0.0912 -0.9918
vn 0.4979 0.2744 -0.8227
vn 0.7879 0.4042 -0.4646
vn 0.7888 0.4039 0.4633
vn 0.5005 0.2742 0.8211
vn 0.0930 0.0913 0.9915
vn -0.3406 -0.1031 0.9345
vn -0.7004 -0.2642 0.6630
vn -0.9037 -0.3550 0.2393
vn -0.8770 -0.4171 -0.2386
vn -0.6818 -0.3124 -0.6615
vn -0.3356 -0.1268 -0.9334
vn 0.0829 0.0973 -0.9918
vn 0.4775 0.3086 -0.8227
vn 0.7577 0.4583 -0.4646
vn 0.7587 0.4580 0.4633
vn 0.4801 0.3085 0.8211
vn 0.0864 0.0975 0.9915
vn -0.3326 -0.1266 0.9345
vn -0.6803 -0.3125 0.6630
vn -0.8767 -0.4173 0.2393
vn -0.8457 -0.4774 -0.2386
vn -0.6583 -0.3592 -0.6615
vn -0.3259 -0.1499 -0.9334
vn 0.0759 0.1029 -0.9918
vn 0.4548 0.3412 -0.8226
vn 0.7237 0.5102 -0.4646
vn 0.7248 0.5099 0.4633
vn 0.4574 0.3413 0.8211
vn 0.0794 0.1033 0.9915
vn -0.3229 -0.1496 0.9345
vn -0.6567 -0.3593 0.6630
vn -0.8454 -0.4775 0.2393
vn -0.8103 -0.5353 -0.2386
vn -0.6316 -0.4043 -0.6615
vn -0.3146 -0.1723 -0.9334
vn 0.0685 0.1080 -0.9918
vn 0.4298 0.3722 -0.8226
vn 0.6863 0.5596 -0.4646
vn 0.6874 0.5594 0.4633
vn 0.4325 0.3724 0.8211
vn 0.0720 0.1086 0.9915
vn -0.3116 -0.1718 0.9345
vn -0.6300 -0.4043 0.6630
vn -0.8099 -0.5355 0.2393
vn -0.7709 -0.5906 -0.2386
vn -0.6018 -0.4475 -0.6615
vn -0.3018 -0.1938 -0.9334
vn 0.0607 0.1125 -0.9918
vn 0.4027 0.4014 -0.8226
vn 0.6455 0.6062 -0.4646
vn 0.6466 0.6060 0.4633
vn 0.4054 0.4017 0.8211
vn 0.0642 0.1133 0.9915
vn -0.2988 -0.1932 0.9345
vn -0.6002 -0.4474 0.6630
vn -0.7705 -0.5908 0.2393
vn -0.7277 -0.6430 -0.2386
vn -0.5691 -0.4884 -0.6615
vn -0.2876 -0.2144 -0.9334
vn 0.0527 0.1165 -0.9918
vn 0.3736 0.4286 -0.8226
vn 0.6015 0.6499 -0.4646
vn 0.6027 0.6498 0.4632
vn 0.3763 0.4291 0.8211
vn 0.0562 0.1175 0.9915
vn -0.2846 -0.2136 0.9345
vn -0.5675 -0.4882 0.6630
vn -0.7274 -0.6432 0.2393
vn 0.9040 -0.3548 -0.2386
vn 0.7020 -0.2640 -0.6615
vn 0.3436 -0.1031 -0.9334
vn -0.0895 0.0912 -0.9918
vn -0.4980 0.2744 -0.8227
vn -0.7879 0.4042 -0.4646
vn -0.7879 0.4042 0.4646
vn -0.4980 0.2744 0.8227
vn -0.0895 0.0912 0.9918
vn 0.3436 -0.1031 0.9334
vn 0.7020 -0.2640 0.6615
vn 0.9040 -0.3548 0.2386
vn 0.8770 -0.4171 -0.2386
vn 0.6818 -0.3124 -0.6615
vn 0.3356 -0.1268 -0.9334
vn -0.0829 0.0973 -0.9918
vn -0.4775 0.3086 -0.8227
vn -0.7577 0.4583 -0.4646
vn -0.7577 0.4583 0.4646
vn -0.4775 0.3086 0.8227
vn -0.0829 0.0973 0.9918
vn 0.3356 -0.1268 0.9334
vn 0.6818 -0.3124 0.6615
vn 0.8770 -0.4171 0.2386
vn 0.8457 -0.4774 -0.2386
vn 0.6583 -0.3592 -0.6615
vn 0.3259 -0.1499 -0.9334
vn -0.0759 0.1029 -0.9918
vn -0.4548 0.3412 -0.8226
vn -0.7237 0.5102 -0.4646
vn -0.7237 0.5102 0.4646
vn -0.4548 0.3412 0.8226
vn -0.0759 0.1029 0.9918
vn 0.3259 -0.1499 0.9334
vn 0.6583 -0.3592 0.6615
vn 0.8457 -0.4774 0.2386
vn 0.8103 -0.5353 -0.2386
vn 0.6316 -0.4043 -0.6615
vn 0.3146 -0.1723 -0.9334
vn -0.0685 0.1080 -0.9918
vn -0.4298 0.3722 -0.8226
vn -0.6863 0.5596 -0.4646
vn -0.6863 0.5596 0.4646
vn -0.4298 0.3722 0.8226
vn -0.0685 0.1080 0.9918
vn 0.3146 -0.1723 0.9334
vn 0.6316 -0.4043 0.6615
vn 0.8103 -0.5353 0.2386
vn 0.7709 -0.5906 -0.2386
vn 0.6018 -0.4475 -0.6615
vn 0.3018 -0.1938 -0.9334
vn -0.0607 0.1125 -0.9918
vn -0.4027 0.4014 -0.8226
vn -0.6455 0.6062 -0.4646
vn -0.6455 0.6062 0.4646
vn -0.4027 0.4014 0.8226
vn -0.0607 0.1125 0.9918
vn 0.3018 -0.1938 0.9334
vn 0.6018 -0.4475 0.6615
vn 0.7709 -0.5906 0.2386
vn 0.7277 -0.6430 -0.2386
vn 0.5691 -0.4884 -0.6615
vn 0.2876 -0.2144 -0.9334
vn -0.0527 0.1165 -0.9918
vn -0.3736 0.4286 -0.8226
vn -0.6015 0.6499 -0.4646
vn -0.6015 0.6499 0.4646
vn -0.3736 0.4286 0.8226
vn -0.0527 0.1165 0.9918
vn 0.2876 -0.2144 0.9334
vn 0.5691 -0.4884 0.6615
vn 0.7277 -0.6430 0.2386
vn -0.8140 -0.5329 -0.2313
vn -0.6725 -0.3706 -0.6407
vn -0.4212 -0.0846 -0.9030
vn -0.1179 0.2597 -0.9585
vn 0.1680 0.5836 -0.7945
vn 0.3716 0.8127 -0.4487
vn 0.3788 0.8117 0.4446
vn 0.1817 0.5838 0.7913
vn -0.1020 0.2606 0.9600
vn -0.4083 -0.0849 0.9089
vn -0.6655 -0.3724 0.6469
vn -0.8123 -0.5344 0.2338
vn -0.7886 -0.5696 -0.2314
vn -0.6547 -0.4007 -0.6409
vn -0.4168 -0.1032 -0.9031
vn -0.1299 0.2549 -0.9582
vn 0.1403 0.5916 -0.7939
vn 0.3328 0.8296 -0.4483
vn 0.3407 0.8286 0.4442
vn 0.1551 0.5918 0.7910
vn -0.1130 0.2557 0.9601
vn -0.4032 -0.1037 0.9092
vn -0.6472 -0.4028 0.6472
vn -0.7868 -0.5712 0.2339
vn -0.7617 -0.6052 -0.2316
vn -0.6357 -0.4299 -0.6412
vn -0.4117 -0.1215 -0.9032
vn -0.1418 0.2496 -0.9579
vn 0.1121 0.5983 -0.7934
vn 0.2930 0.8447 -0.4479
vn 0.3019 0.8437 0.4439
vn 0.1282 0.5985 0.7908
vn -0.1238 0.2503 0.9602
vn -0.3973 -0.1221 0.9095
vn -0.6276 -0.4322 0.6475
vn -0.7596 -0.6068 0.2341
vn -0.7331 -0.6394 -0.2317
vn -0.6153 -0.4583 -0.6414
vn -0.4058 -0.1395 -0.9033
vn -0.1535 0.2438 -0.9576
vn 0.0836 0.6037 -0.7928
vn 0.2526 0.8579 -0.4474
vn 0.2624 0.8570 0.4435
vn 0.1010 0.6040 0.7905
vn -0.1344 0.2445 0.9603
vn -0.3905 -0.1403 0.9098
vn -0.6067 -0.4607 0.6478
vn -0.7308 -0.6411 0.2342
vn -0.7031 -0.6722 -0.2318
vn -0.5937 -0.4856 -0.6416
vn -0.3990 -0.1573 -0.9034
vn -0.1649 0.2374 -0.9573
vn 0.0548 0.6078 -0.7922
vn 0.2114 0.8692 -0.4470
vn 0.2223 0.8685 0.4431
vn 0.0736 0.6083 0.7903
vn -0.1446 0.2382 0.9604
vn -0.3829 -0.1581 0.9102
vn -0.5846 -0.4881 0.6481
vn -0.7006 -0.6740 0.2343
vn -0.6716 -0.7037 -0.2319
vn -0.5709 -0.5120 -0.6419
vn -0.3915 -0.1747 -0.9034
vn -0.1761 0.2305 -0.9570
vn 0.0257 0.6105 -0.7916
vn 0.1697 0.8786 -0.4465
vn 0.1816 0.8781 0.4427
vn 0.0460 0.6114 0.7900
vn -0.1546 0.2315 0.9605
vn -0.3745 -0.1754 0.9105
vn -0.5612 -0.5145 0.6484
vn -0.6689 -0.7055 0.2344
vn -0.6388 -0.7336 -0.2321
vn -0.5469 -0.5372 -0.6421
vn -0.3832 -0.1918 -0.9035
vn -0.1870 0.2230 -0.9567
vn -0.0035 0.6118 -0.7910
vn 0.1274 0.8859 -0.4460
vn 0.1788 0.9839 -0.0000
vn 0.1405 0.8858 0.4423
vn 0.0182 0.6132 0.7897
vn -0.1642 0.2244 0.9606
vn -0.3654 -0.1924 0.9108
vn -0.5366 -0.5397 0.6487
vn -0.6358 -0.7354 0.2345
vn -0.6046 -0.7620 -0.2322
vn -0.5218 -0.5613 -0.6423
vn -0.3742 -0.2085 -0.9036
vn -0.1976 0.2151 -0.9564
vn -0.0328 0.6118 -0.7903
vn 0.0848 0.8913 -0.4454
vn 0.0990 0.8916 0.4419
vn -0.0097 0.6137 0.7895
vn -0.1736 0.2169 0.9606
vn -0.3555 -0.2088 0.9110
vn -0.5110 -0.5637 0.6489
vn -0.6014 -0.7637 0.2346
vn 0.8140 -0.5329 -0.2313
vn 0.6725 -0.3706 -0.6407
vn 0.4212 -0.0846 -0.9030
vn 0.1179 0.2597 -0.9585
vn -0.1680 0.5836 -0.7945
vn -0.3716 0.8127 -0.4487
vn -0.3716 0.8127 0.4487
vn -0.1680 0.5836 0.7945
vn 0.1179 0.2597 0.9585
vn 0.4212 -0.0846 0.9030
vn 0.6725 -0.3706 0.6407
vn 0.8140 -0.5329 0.2313
vn 0.7886 -0.5696 -0.2314
vn 0.6547 -0.4007 -0.6409
vn 0.4168 -0.1032 -0.9031
vn 0.1299 0.2549 -0.9582
vn -0.1403 0.5916 -0.7939
vn -0.3328 0.8296 -0.4483
vn -0.3328 0.8296 0.4483
vn -0.1403 0.5916 0.7939
vn 0.1299 0.2549 0.9582
vn 0.4168 -0.1032 0.9031
vn 0.6547 -0.4007 0.6409
vn 0.7886 -0.5696 0.2314
vn 0.7617 -0.6052 -0.2316
vn 0.6357 -0.4299 -0.6412
vn 0.4117 -0.1215 -0.9032
vn 0.1418 0.2496 -0.9579
vn -0.1121 0.5983 -0.7934
vn -0.2930 0.8447 -0.4479
vn -0.2930 0.8447 0.4479
vn -0.1121 0.5983 0.7934
vn 0.1418 0.2496 0.9579
vn 0.4117 -0.1215 0.9032
vn 0.6357 -0.4299 0.6412
vn 0.7617 -0.6052 0.2316
vn 0.7331 -0.6394 -0.2317
vn 0.6153 -0.4583 -0.6414
vn 0.4058 -0.1395 -0.9033
vn 0.1535 0.2438 -0.9576
vn -0.0836 0.6037 -0.7928
vn -0.2526 0.8579 -0.4474
vn -0.2526 0.8579 0.4474
vn -0.0836 0.6037 0.7928
vn 0.1535 0.2438 0.9576
vn 0.4058 -0.1395 0.9033
vn 0.6153 -0.4583 0.6414
vn 0.7331 -0.6394 0.2317
vn 0.7031 -0.6722 -0.2318
vn 0.5937 -0.4856 -0.6416
vn 0.3990 -0.1573 -0.9034
vn 0.1649 0.2374 -0.9573
vn -0.0548 0.6078 -0.7922
vn -0.2114 0.8692 -0.4470
vn -0.2114 0.8692 0.4470
vn -0.0548 0.6078 0.7922
vn 0.1649 0.2374 0.9573
vn 0.3990 -0.1573 0.9034
vn 0.5937 -0.4856 0.6416
vn 0.7031 -0.6722 0.2318
vn 0.6716 -0.7037 -0.2319
vn 0.5709 -0.5120 -0.6419
vn 0.3915 -0.1747 -0.9034
vn 0.1761 0.2305 -0.9570
vn -0.0257 0.6105 -0.7916
vn -0.1697 0.8786 -0.4465
vn -0.1697 0.8786 0.4465
vn -0.0257 0.6105 0.7916
vn 0.1761 0.2305 0.9570
vn 0.3915 -0.1747 0.9034
vn 0.5709 -0.5120 0.6419
vn 0.6716 -0.7037 0.2319
vn 0.6388 -0.7336 -0.2321
vn 0.5469 -0.5372 -0.6421
vn 0.3832 -0.1918 -0.9035
vn 0.1870 0.2230 -0.9567
vn 0.0035 0.6118 -0.7910
vn -0.1274 0.8859 -0.4460
vn -0.1788 0.9839 -0.0000
vn -0.1274 0.8859 0.4460
vn 0.0035 0.6118 0.7910
vn 0.1870 0.2230 0.9567
vn 0.3832 -0.1918 0.9035
vn 0.5469 -0.5372 0.6421
vn 0.6388 -0.7336 0.2321
vn 0.6046 -0.7620 -0.2322
vn 0.5218 -0.5613 -0.6423
vn 0.3742 -0.2085 -0.9036
vn 0.1976 0.2151 -0.9564
vn 0.0328 0.6118 -0.7903
vn -0.0848 0.8913 -0.4454
vn -0.0848 0.8913 0.4454
vn 0.0328 0.6118 0.7903
vn 0.1976 0.2151 0.9564
vn 0.3742 -0.2085 0.9036
vn 0.5218 -0.5613 0.6423
vn 0.6046 -0.7620 0.2322
vn 0.2249 -0.9091 -0.3507
vn 0.2981 -0.3072 -0.9037
vn 0.8296 -0.4507 -0.3297
vn 0.2196 0.3840 -0.8969
vn 0.2761 0.9179 -0.2850
vn 0.8252 0.3556 -0.4389
vn 0.2940 -0.9125 0.2846
vn 0.8325 -0.3398 0.4376
vn 0.2283 -0.3797 0.8965
vn 0.2081 0.9132 0.3504
vn 0.2936 0.3128 0.9033
vn 0.8213 0.4664 0.3284
vn -0.2765 -0.9224 -0.2697
vn -0.8258 -0.3626 -0.4319
vn -0.2209 -0.3984 -0.8902
vn -0.2254 0.9033 -0.3650
vn -0.2994 0.2926 -0.9082
vn -0.8300 0.4453 -0.3358
vn -0.2076 -0.9074 0.3654
vn -0.2923 -0.2982 0.9086
vn -0.8209 -0.4610 0.3371
vn -0.2936 0.9170 0.2702
vn -0.8319 0.3469 0.4333
vn -0.2270 0.3942 0.8906
vn 0.2875 0.9577 -0.0079
vn 0.8856 0.0122 0.4643
vn -0.8856 -0.0122 -0.4643
vn 0.0086 -0.9333 -0.3590
vn -0.0091 0.9274 -0.3741
vn 0.0189 -0.9072 -0.4203
vn 0.0346 -0.2751 -0.9608
vn 0.2489 -0.6462 -0.7215
vn 0.0336 0.3379 -0.9406
vn 0.0596 0.9373 -0.3434
vn 0.2685 0.6310 -0.7278
vn 0.0327 -0.9387 0.3431
vn 0.2533 -0.6391 0.7262
vn 0.0287 -0.3389 0.9404
vn 0.0492 0.9062 0.4201
vn 0.0487 0.2739 0.9605
vn 0.2729 0.6382 0.7199
vn -0.0616 -0.9406 -0.3337
vn -0.2729 -0.6382 -0.7199
vn -0.0393 -0.3472 -0.9370
vn -0.0214 0.9030 -0.4291
vn -0.0404 0.2656 -0.9632
vn -0.2533 0.6391 -0.7263
vn -0.0467 -0.9020 0.4293
vn -0.0429 -0.2644 0.9635
vn -0.2685 -0.6310 0.7278
vn -0.0306 0.9421 0.3340
vn -0.2489 0.6461 0.7215
vn -0.0231 0.3482 0.9372
vn -0.0643 -0.9979 0.0051
vn -0.0081 -0.3479 -0.9375
vt 0.076923 0.000000
vt 0.000000 0.333333
vt 0.000000 0.000000
vt 0.153846 0.000000
vt 0.076923 0.333333
vt 0.230769 0.000000
vt 0.153846 0.333333
vt 0.307692 0.000000
vt 0.230769 0.333333
vt 0.384615 0.000000
vt 0.307692 0.333333
vt 0.461538 0.000000
vt 0.384615 0.333333
vt 0.538462 0.000000
vt 0.461538 0.333333
vt 0.615385 0.333333
vt 0.538462 0.333333
vt 0.615385 0.000000
vt 0.692308 0.333333
vt 0.692308 0.000000
vt 0.769231 0.333333
vt 0.769231 0.000000
vt 0.846154 0.333333
vt 0.846154 0.000000
vt 0.923077 0.333333
vt 0.923077 0.000000
vt 1.000000 0.333333
vt 0.000000 0.666667
vt 0.076923 0.666667
vt 0.153846 0.666667
vt 0.230769 0.666667
vt 0.307692 0.666667
vt 0.384615 0.666667
vt 0.461538 0.666667
vt 0.615385 0.666667
vt 0.538462 0.666667
vt 0.692308 0.666667
vt 0.769231 0.666667
vt 0.846154 0.666667
vt 0.923077 0.666667
vt 1.000000 0.666667
vt 0.000000 1.000000
vt 0.076923 1.000000
vt 0.153846 1.000000
vt 0.230769 1.000000
vt 0.307692 1.000000
vt 0.384615 1.000000
vt 0.538462 1.000000
vt 0.461538 1.000000
vt 0.615385 1.000000
vt 0.692308 1.000000
vt 0.769231 1.000000
vt 0.846154 1.000000
vt 0.923077 1.000000
vt 1.000000 1.000000
vt 1.000000 0.000000
vt 0.000000 0.166667
vt 0.076923 0.166667
vt 0.153846 0.166667
vt 0.230769 0.166667
vt 0.307692 0.166667
vt 0.384615 0.166667
vt 0.461538 0.166667
vt 0.615385 0.166667
vt 0.538462 0.166667
vt 0.692308 0.166667
vt 0.769231 0.166667
vt 0.846154 0.166667
vt 0.923077 0.166667
vt 1.000000 0.166667
vt 0.000000 0.500000
vt 0.076923 0.500000
vt 0.153846 0.500000
vt 0.230769 0.500000
vt 0.307692 0.500000
vt 0.384615 0.500000
vt 0.461538 0.500000
vt 0.615385 0.500000
vt 0.538462 0.500000
vt 0.692308 0.500000
vt 0.769231 0.500000
vt 0.846154 0.500000
vt 0.923077 0.500000
vt 1.000000 0.500000
vt 0.000000 0.833333
vt 0.076923 0.833333
vt 0.153846 0.833333
vt 0.230769 0.833333
vt 0.307692 0.833333
vt 0.384615 0.833333
vt 0.538462 0.833333
vt 0.461538 0.833333
vt 0.615385 0.833333
vt 0.692308 0.833333
vt 0.769231 0.833333
vt 0.846154 0.833333
vt 0.923077 0.833333
vt 1.000000 0.833333
vt 0.000000 0.125000
vt 0.076923 0.125000
vt 0.153846 0.125000
vt 0.230769 0.125000
vt 0.307692 0.125000
vt 0.384615 0.125000
vt 0.461538 0.125000
vt 0.615385 0.125000
vt 0.538462 0.125000
vt 0.692308 0.125000
vt 0.769231 0.125000
vt 0.846154 0.125000
vt 0.923077 0.125000
vt 1.000000 0.125000
vt 0.000000 0.250000
vt 0.076923 0.250000
vt 0.153846 0.250000
vt 0.230769 0.250000
vt 0.307692 0.250000
vt 0.384615 0.250000
vt 0.461538 0.250000
vt 0.615385 0.250000
vt 0.538462 0.250000
vt 0.692308 0.250000
vt 0.769231 0.250000
vt 0.846154 0.250000
vt 0.923077 0.250000
vt 1.000000 0.250000
vt 0.000000 0.375000
vt 0.076923 0.375000
vt 0.153846 0.375000
vt 0.230769 0.375000
vt 0.307692 0.375000
vt 0.384615 0.375000
vt 0.461538 0.375000
vt 0.615385 0.375000
vt 0.538462 0.375000
vt 0.692308 0.375000
vt 0.769231 0.375000
vt 0.846154 0.375000
vt 0.923077 0.375000
vt 1.000000 0.375000
vt 0.000000 0.625000
vt 0.076923 0.625000
vt 0.153846 0.625000
vt 0.230769 0.625000
vt 0.307692 0.625000
vt 0.384615 0.625000
vt 0.461538 0.625000
vt 0.615385 0.625000
vt 0.538462 0.625000
vt 0.692308 0.625000
vt 0.769231 0.625000
vt 0.846154 0.625000
vt 0.923077 0.625000
vt 1.000000 0.625000
vt 0.000000 0.750000
vt 0.076923 0.750000
vt 0.153846 0.750000
vt 0.230769 0.750000
vt 0.307692 0.750000
vt 0.384615 0.750000
vt 0.461538 0.750000
vt 0.615385 0.750000
vt 0.538462 0.750000
vt 0.692308 0.750000
vt 0.769231 0.750000
vt 0.846154 0.750000
vt 0.923077 0.750000
vt 1.000000 0.750000
vt 0.000000 0.875000
vt 0.076923 0.875000
vt 0.153846 0.875000
vt 0.230769 0.875000
vt 0.307692 0.875000
vt 0.384615 0.875000
vt 0.461538 0.875000
vt 0.615385 0.875000
vt 0.538462 0.875000
vt 0.692308 0.875000
vt 0.769231 0.875000
vt 0.846154 0.875000
vt 0.923077 0.875000
vt 1.000000 0.875000
s 0
usemtl bone
f 2/1/1 14/2/1 1/3/1
f 3/4/2 15/5/2 2/1/2
f 4/6/3 16/7/3 3/4/3
f 5/8/4 17/9/4 4/6/4
f 6/10/5 18/11/5 5/8/5
f 7/12/6 19/13/6 6/10/6
f 8/14/7 20/15/7 7/12/7
f 8/14/8 22/16/8 21/17/8
f 9/18/9 23/19/9 22/16/9
f 10/20/10 24/21/10 23/19/10
f 11/22/11 25/23/11 24/21/11
f 12/24/12 26/25/12 25/23/12
f 13/26/13 14/27/13 26/25/13
f 15/5/14 27/28/14 14/2/14
f 16/7/15 28/29/15 15/5/15
f 17/9/16 29/30/16 16/7/16
f 18/11/17 30/31/17 17/9/17
f 19/13/18 31/32/18 18/11/18
f 20/15/19 32/33/19 19/13/19
f 21/17/20 33/34/20 20/15/20
f 21/17/21 35/35/21 34/36/21
f 22/16/22 36/37/22 35/35/22
f 23/19/23 37/38/23 36/37/23
f 24/21/24 38/39/24 37/38/24
f 25/23/25 39/40/25 38/39/25
f 26/25/26 27/41/26 39/40/26
f 28/29/27 40/42/27 27/28/27
f 29/30/28 41/43/28 28/29/28
f 30/31/29 42/44/29 29/30/29
f 31/32/30 43/45/30 30/31/30
f 32/33/31 44/46/31 31/32/31
f 33/34/32 45/47/32 32/33/32
f 33/34/33 47/48/33 46/49/33
f 34/36/34 48/50/34 47/48/34
f 35/35/35 49/51/35 48/50/35
f 36/37/36 50/52/36 49/51/36
f 37/38/37 51/53/37 50/52/37
f 38/39/38 52/54/38 51/53/38
f 39/40/39 40/55/39 52/54/39
f 66/2/40 54/1/40 53/3/40
f 67/5/41 55/4/41 54/1/41
f 68/7/42 56/6/42 55/4/42
f 69/9/43 57/8/43 56/6/43
f 70/11/44 58/10/44 57/8/44
f 71/13/45 59/12/45 58/10/45
f 72/15/46 60/14/46 59/12/46
f 60/14/47 74/16/47 61/18/47
f 61/18/48 75/19/48 62/20/48
f 62/20/49 76/21/49 63/22/49
f 63/22/50 77/23/50 64/24/50
f 64/24/51 78/25/51 65/26/51
f 65/26/52 66/27/52 53/56/52
f 79/28/53 67/5/53 66/2/53
f 80/29/54 68/7/54 67/5/54
f 81/30/55 69/9/55 68/7/55
f 82/31/56 70/11/56 69/9/56
f 83/32/57 71/13/57 70/11/57
f 84/33/58 72/15/58 71/13/58
f 85/34/59 73/17/59 72/15/59
f 73/17/60 87/35/60 74/16/60
f 74/16/61 88/37/61 75/19/61
f 75/19/62 89/38/62 76/21/62
f 76/21/63 90/39/63 77/23/63
f 77/23/64 91/40/64 78/25/64
f 78/25/65 79/41/65 66/27/65
f 92/42/66 80/29/66 79/28/66
f 93/43/67 81/30/67 80/29/67
f 94/44/68 82/31/68 81/30/68
f 95/45/69 83/32/69 82/31/69
f 96/46/70 84/33/70 83/32/70
f 97/47/71 85/34/71 84/33/71
f 98/49/72 86/36/72 85/34/72
f 86/36/73 100/50/73 87/35/73
f 87/35/74 101/51/74 88/37/74
f 88/37/75 102/52/75 89/38/75
f 89/38/76 103/53/76 90/39/76
f 90/39/77 104/54/77 91/40/77
f 91/40/78 92/55/78 79/41/78
f 210/1/157 222/57/157 209/3/157
f 211/4/158 223/58/158 210/1/158
f 212/6/159 224/59/159 211/4/159
f 213/8/160 225/60/160 212/6/160
f 214/10/161 226/61/161 213/8/161
f 215/12/162 227/62/162 214/10/162
f 216/14/163 228/63/163 215/12/163
f 216/14/164 230/64/164 229/65/164
f 217/18/165 231/66/165 230/64/165
f 218/20/166 232/67/166 231/66/166
f 219/22/167 233/68/167 232/67/167
f 220/24/168 234/69/168 233/68/168
f 221/26/169 222/70/169 234/69/169
f 223/58/170 235/2/170 222/57/170
f 224/59/171 236/5/171 223/58/171
f 225/60/172 237/7/172 224/59/172
f 226/61/173 238/9/173 225/60/173
f 227/62/174 239/11/174 226/61/174
f 228/63/175 240/13/175 227/62/175
f 229/65/176 241/15/176 228/63/176
f 229/65/177 243/16/177 242/17/177
f 230/64/178 244/19/178 243/16/178
f 231/66/179 245/21/179 244/19/179
f 232/67/180 246/23/180 245/21/180
f 233/68/181 247/25/181 246/23/181
f 234/69/182 235/27/182 247/25/182
f 236/5/183 248/71/183 235/2/183
f 237/7/184 249/72/184 236/5/184
f 238/9/185 250/73/185 237/7/185
f 239/11/186 251/74/186 238/9/186
f 240/13/187 252/75/187 239/11/187
f 241/15/188 253/76/188 240/13/188
f 242/17/189 254/77/189 241/15/189
f 242/17/190 256/78/190 255/79/190
f 243/16/191 257/80/191 256/78/191
f 244/19/192 258/81/192 257/80/192
f 245/21/193 259/82/193 258/81/193
f 246/23/194 260/83/194 259/82/194
f 247/25/195 248/84/195 260/83/195
f 249/72/196 261/28/196 248/71/196
f 250/73/197 262/29/197 249/72/197
f 251/74/198 263/30/198 250/73/198
f 252/75/199 264/31/199 251/74/199
f 253/76/200 265/32/200 252/75/200
f 254/77/201 266/33/201 253/76/201
f 255/79/202 267/34/202 254/77/202
f 255/79/203 269/35/203 268/36/203
f 256/78/204 270/37/204 269/35/204
f 257/80/205 271/38/205 270/37/205
f 258/81/206 272/39/206 271/38/206
f 259/82/207 273/40/207 272/39/207
f 260/83/208 261/41/208 273/40/208
f 262/29/209 274/85/209 261/28/209
f 263/30/210 275/86/210 262/29/210
f 264/31/211 276/87/211 263/30/211
f 265/32/212 277/88/212 264/31/212
f 266/33/213 278/89/213 265/32/213
f 267/34/214 279/90/214 266/33/214
f 267/34/215 281/91/215 280/92/215
f 268/36/216 282/93/216 281/91/216
f 269/35/217 283/94/217 282/93/217
f 270/37/218 284/95/218 283/94/218
f 271/38/219 285/96/219 284/95/219
f 272/39/220 286/97/220 285/96/220
f 273/40/221 274/98/221 286/97/221
f 275/86/222 287/42/222 274/85/222
f 276/87/223 288/43/223 275/86/223
f 277/88/224 289/44/224 276/87/224
f 278/89/225 290/45/225 277/88/225
f 279/90/226 291/46/226 278/89/226
f 280/92/227 292/47/227 279/90/227
f 281/91/228 293/49/228 280/92/228
f 281/91/229 295/50/229 294/48/229
f 282/93/230 296/51/230 295/50/230
f 283/94/231 297/52/231 296/51/231
f 284/95/232 298/53/232 297/52/232
f 285/96/233 299/54/233 298/53/233
f 286/97/234 287/55/234 299/54/234
f 313/57/235 301/1/235 300/3/235
f 314/58/236 302/4/236 301/1/236
f 315/59/237 303/6/237 302/4/237
f 316/60/238 304/8/238 303/6/238
f 317/61/239 305/10/239 304/8/239
f 318/62/240 306/12/240 305/10/240
f 319/63/241 307/14/241 306/12/241
f 307/14/242 321/64/242 308/18/242
f 308/18/243 322/66/243 309/20/243
f 309/20/244 323/67/244 310/22/244
f 310/22/245 324/68/245 311/24/245
f 311/24/246 325/69/246 312/26/246
f 312/26/247 313/70/247 300/56/247
f 326/2/248 314/58/248 313/57/248
f 327/5/249 315/59/249 314/58/249
f 328/7/250 316/60/250 315/59/250
f 329/9/251 317/61/251 316/60/251
f 330/11/252 318/62/252 317/61/252
f 331/13/253 319/63/253 318/62/253
f 332/15/254 320/65/254 319/63/254
f 320/65/255 334/16/255 321/64/255
f 321/64/256 335/19/256 322/66/256
f 322/66/257 336/21/257 323/67/257
f 323/67/258 337/23/258 324/68/258
f 324/68/259 338/25/259 325/69/259
f 325/69/260 326/27/260 313/70/260
f 339/71/261 327/5/261 326/2/261
f 340/72/262 328/7/262 327/5/262
f 341/73/263 329/9/263 328/7/263
f 342/74/264 330/11/264 329/9/264
f 343/75/265 331/13/265 330/11/265
f 344/76/266 332/15/266 331/13/266
f 345/77/267 333/17/267 332/15/267
f 333/17/268 347/78/268 334/16/268
f 334/16/269 348/80/269 335/19/269
f 335/19/270 349/81/270 336/21/270
f 336/21/271 350/82/271 337/23/271
f 337/23/272 351/83/272 338/25/272
f 338/25/273 339/84/273 326/27/273
f 352/28/274 340/72/274 339/71/274
f 353/29/275 341/73/275 340/72/275
f 354/30/276 342/74/276 341/73/276
f 355/31/277 343/75/277 342/74/277
f 356/32/278 344/76/278 343/75/278
f 357/33/279 345/77/279 344/76/279
f 358/34/280 346/79/280 345/77/280
f 346/79/281 360/35/281 347/78/281
f 347/78/282 361/37/282 348/80/282
f 348/80/283 362/38/283 349/81/283
f 349/81/284 363/39/284 350/82/284
f 350/82/285 364/40/285 351/83/285
f 351/83/286 352/41/286 339/84/286
f 365/85/287 353/29/287 352/28/287
f 366/86/288 354/30/288 353/29/288
f 367/87/289 355/31/289 354/30/289
f 368/88/290 356/32/290 355/31/290
f 369/89/291 357/33/291 356/32/291
f 370/90/292 358/34/292 357/33/292
f 371/92/293 359/36/293 358/34/293
f 359/36/294 373/93/294 360/35/294
f 360/35/295 374/94/295 361/37/295
f 361/37/296 375/95/296 362/38/296
f 362/38/297 376/96/297 363/39/297
f 363/39/298 377/97/298 364/40/298
f 364/40/299 365/98/299 352/41/299
f 378/42/300 366/86/300 365/85/300
f 379/43/301 367/87/301 366/86/301
f 380/44/302 368/88/302 367/87/302
f 381/45/303 369/89/303 368/88/303
f 382/46/304 370/90/304 369/89/304
f 383/47/305 371/92/305 370/90/305
f 371/92/306 385/48/306 372/91/306
f 372/91/307 386/50/307 373/93/307
f 373/93/308 387/51/308 374/94/308
f 374/94/309 388/52/309 375/95/309
f 375/95/310 389/53/310 376/96/310
f 376/96/311 390/54/311 377/97/311
f 377/97/312 378/55/312 365/98/312
f 392/1/313 404/99/313 391/3/313
f 393/4/314 405/100/314 392/1/314
f 394/6/315 406/101/315 393/4/315
f 395/8/316 407/102/316 394/6/316
f 396/10/317 408/103/317 395/8/317
f 397/12/318 409/104/318 396/10/318
f 398/14/319 410/105/319 397/12/319
f 398/14/320 412/106/320 411/107/320
f 399/18/321 413/108/321 412/106/321
f 400/20/322 414/109/322 413/108/322
f 401/22/323 415/110/323 414/109/323
f 402/24/324 416/111/324 415/110/324
f 403/26/325 404/112/325 416/111/325
f 405/100/326 417/113/326 404/99/326
f 406/101/327 418/114/327 405/100/327
f 407/102/328 419/115/328 406/101/328
f 408/103/329 420/116/329 407/102/329
f 409/104/330 421/117/330 408/103/330
f 410/105/331 422/118/331 409/104/331
f 411/107/332 423/119/332 410/105/332
f 411/107/333 425/120/333 424/121/333
f 412/106/334 426/122/334 425/120/334
f 413/108/335 427/123/335 426/122/335
f 414/109/336 428/124/336 427/123/336
f 415/110/337 429/125/337 428/124/337
f 416/111/338 417/126/338 429/125/338
f 418/114/339 430/127/339 417/113/339
f 419/115/340 431/128/340 418/114/340
f 420/116/341 432/129/341 419/115/341
f 421/117/342 433/130/342 420/116/342
f 422/118/343 434/131/343 421/117/343
f 423/119/344 435/132/344 422/118/344
f 424/121/345 436/133/345 423/119/345
f 424/121/346 438/134/346 437/135/346
f 425/120/347 439/136/347 438/134/347
f 426/122/348 440/137/348 439/136/348
f 427/123/349 441/138/349 440/137/349
f 428/124/350 442/139/350 441/138/350
f 429/125/351 430/140/351 442/139/351
f 431/128/352 443/71/352 430/127/352
f 432/129/353 444/72/353 431/128/353
f 433/130/354 445/73/354 432/129/354
f 434/131/355 446/74/355 433/130/355
f 435/132/356 447/75/356 434/131/356
f 436/133/357 448/76/357 435/132/357
f 437/135/358 449/77/358 436/133/358
f 437/135/359 451/78/359 450/79/359
f 438/134/360 452/80/360 451/78/360
f 439/136/361 453/81/361 452/80/361
f 440/137/362 454/82/362 453/81/362
f 441/138/363 455/83/363 454/82/363
f 442/139/364 443/84/364 455/83/364
f 444/72/365 456/141/365 443/71/365
f 445/73/366 457/142/366 444/72/366
f 446/74/367 458/143/367 445/73/367
f 447/75/368 459/144/368 446/74/368
f 448/76/369 460/145/369 447/75/369
f 449/77/370 461/146/370 448/76/370
f 450/79/371 462/147/371 449/77/371
f 450/79/372 464/148/372 463/149/372
f 451/78/373 465/150/373 464/148/373
f 452/80/374 466/151/374 465/150/374
f 453/81/375 467/152/375 466/151/375
f 454/82/376 468/153/376 467/152/376
f 455/83/377 456/154/377 468/153/377
f 457/142/378 469/155/378 456/141/378
f 458/143/379 470/156/379 457/142/379
f 459/144/380 471/157/380 458/143/380
f 460/145/381 472/158/381 459/144/381
f 461/146/382 473/159/382 460/145/382
f 462/147/383 474/160/383 461/146/383
f 463/149/384 475/161/384 462/147/384
f 463/149/385 477/162/385 476/163/385
f 464/148/386 478/164/386 477/162/386
f 465/150/387 479/165/387 478/164/387
f 466/151/388 480/166/388 479/165/388
f 467/152/389 481/167/389 480/166/389
f 468/153/390 469/168/390 481/167/390
f 470/156/391 482/169/391 469/155/391
f 471/157/392 483/170/392 470/156/392
f 472/158/393 484/171/393 471/157/393
f 473/159/394 485/172/394 472/158/394
f 474/160/395 486/173/395 473/159/395
f 475/161/396 487/174/396 474/160/396
f 476/163/397 488/175/397 475/161/397
f 476/163/398 490/176/398 489/177/398
f 477/162/399 491/178/399 490/176/399
f 478/164/400 492/179/400 491/178/400
f 479/165/401 493/180/401 492/179/401
f 480/166/402 494/181/402 493/180/402
f 481/167/403 482/182/403 494/181/403
f 483/170/404 495/42/404 482/169/404
f 484/171/405 496/43/405 483/170/405
f 485/172/406 497/44/406 484/171/406
f 486/173/407 498/45/407 485/172/407
f 487/174/408 499/46/408 486/173/408
f 488/175/409 500/47/409 487/174/409
f 489/177/410 501/49/410 488/175/410
f 489/177/411 503/50/411 502/48/411
f 490/176/412 504/51/412 503/50/412
f 491/178/413 505/52/413 504/51/413
f 492/179/414 506/53/414 505/52/414
f 493/180/415 507/54/415 506/53/415
f 494/181/416 495/55/416 507/54/416
f 521/99/417 509/1/417 508/3/417
f 522/100/418 510/4/418 509/1/418
f 523/101/419 511/6/419 510/4/419
f 524/102/420 512/8/420 511/6/420
f 525/103/421 513/10/421 512/8/421
f 526/104/422 514/12/422 513/10/422
f 527/105/423 515/14/423 514/12/423
f 515/14/424 529/106/424 516/18/424
f 516/18/425 530/108/425 517/20/425
f 517/20/426 531/109/426 518/22/426
f 518/22/427 532/110/427 519/24/427
f 519/24/428 533/111/428 520/26/428
f 520/26/429 521/112/429 508/56/429
f 534/113/430 522/100/430 521/99/430
f 535/114/431 523/101/431 522/100/431
f 536/115/432 524/102/432 523/101/432
f 537/116/433 525/103/433 524/102/433
f 538/117/434 526/104/434 525/103/434
f 539/118/435 527/105/435 526/104/435
f 527/105/436 541/121/436 528/107/436
f 528/107/437 542/120/437 529/106/437
f 529/106/438 543/122/438 530/108/438
f 530/108/439 544/123/439 531/109/439
f 531/109/440 545/124/440 532/110/440
f 532/110/441 546/125/441 533/111/441
f 533/111/442 534/126/442 521/112/442
f 547/127/443 535/114/443 534/113/443
f 548/128/444 536/115/444 535/114/444
f 549/129/445 537/116/445 536/115/445
f 550/130/446 538/117/446 537/116/446
f 551/131/447 539/118/447 538/117/447
f 552/132/448 540/119/448 539/118/448
f 540/119/449 554/135/449 541/121/449
f 541/121/450 555/134/450 542/120/450
f 542/120/451 556/136/451 543/122/451
f 543/122/452 557/137/452 544/123/452
f 544/123/453 558/138/453 545/124/453
f 545/124/454 559/139/454 546/125/454
f 546/125/455 547/140/455 534/126/455
f 560/71/456 548/128/456 547/127/456
f 561/72/457 549/129/457 548/128/457
f 562/73/458 550/130/458 549/129/458
f 563/74/459 551/131/459 550/130/459
f 564/75/460 552/132/460 551/131/460
f 565/76/461 553/133/461 552/132/461
f 566/77/462 554/135/462 553/133/462
f 554/135/463 568/78/463 555/134/463
f 555/134/464 569/80/464 556/136/464
f 556/136/465 570/81/465 557/137/465
f 557/137/466 571/82/466 558/138/466
f 558/138/467 572/83/467 559/139/467
f 559/139/468 560/84/468 547/140/468
f 573/141/469 561/72/469 560/71/469
f 574/142/470 562/73/470 561/72/470
f 575/143/471 563/74/471 562/73/471
f 576/144/472 564/75/472 563/74/472
f 577/145/473 565/76/473 564/75/473
f 578/146/474 566/77/474 565/76/474
f 579/147/475 567/79/475 566/77/475
f 567/79/476 581/148/476 568/78/476
f 568/78/477 582/150/477 569/80/477
f 569/80/478 583/151/478 570/81/478
f 570/81/479 584/152/479 571/82/479
f 571/82/480 585/153/480 572/83/480
f 572/83/481 573/154/481 560/84/481
f 586/155/482 574/142/482 573/141/482
f 587/156/483 575/143/483 574/142/483
f 588/157/484 576/144/484 575/143/484
f 589/158/485 577/145/485 576/144/485
f 590/159/486 578/146/486 577/145/486
f 591/160/487 579/147/487 578/146/487
f 579/147/488 593/163/488 580/149/488
f 580/149/489 594/162/489 581/148/489
f 581/148/490 595/164/490 582/150/490
f 582/150/491 596/165/491 583/151/491
f 583/151/492 597/166/492 584/152/492
f 584/152/493 598/167/493 585/153/493
f 585/153/494 586/168/494 573/154/494
f 599/169/495 587/156/495 586/155/495
f 600/170/496 588/157/496 587/156/496
f 601/171/497 589/158/497 588/157/497
f 602/172/498 590/159/498 589/158/498
f 603/173/499 591/160/499 590/159/499
f 604/174/500 592/161/500 591/160/500
f 605/175/501 593/163/501 592/161/501
f 593/163/502 607/176/502 594/162/502
f 594/162/503 608/178/503 595/164/503
f 595/164/504 609/179/504 596/165/504
f 596/165/505 610/180/505 597/166/505
f 597/166/506 611/181/506 598/167/506
f 598/167/507 599/182/507 586/168/507
f 612/42/508 600/170/508 599/169/508
f 613/43/509 601/171/509 600/170/509
f 614/44/510 602/172/510 601/171/510
f 615/45/511 603/173/511 602/172/511
f 616/46/512 604/174/512 603/173/512
f 617/47/513 605/175/513 604/174/513
f 618/49/514 606/177/514 605/175/514
f 606/177/515 620/50/515 607/176/515
f 607/176/516 621/51/516 608/178/516
f 608/178/517 622/52/517 609/179/517
f 609/179/518 623/53/518 610/180/518
f 610/180/519 624/54/519 611/181/519
f 611/181/520 612/55/520 599/182/520
f 2/1/629 15/5/629 14/2/629
f 3/4/630 16/7/630 15/5/630
f 4/6/631 17/9/631 16/7/631
f 5/8/632 18/11/632 17/9/632
f 6/10/633 19/13/633 18/11/633
f 7/12/634 20/15/634 19/13/634
f 8/14/7 21/17/7 20/15/7
f 8/14/635 9/18/635 22/16/635
f 9/18/636 10/20/636 23/19/636
f 10/20/637 11/22/637 24/21/637
f 11/22/638 12/24/638 25/23/638
f 12/24/639 13/26/639 26/25/639
f 13/26/640 1/56/640 14/27/640
f 15/5/641 28/29/641 27/28/641
f 16/7/642 29/30/642 28/29/642
f 17/9/643 30/31/643 29/30/643
f 18/11/644 31/32/644 30/31/644
f 19/13/645 32/33/645 31/32/645
f 20/15/646 33/34/646 32/33/646
f 21/17/20 34/36/20 33/34/20
f 21/17/647 22/16/647 35/35/647
f 22/16/648 23/19/648 36/37/648
f 23/19/649 24/21/649 37/38/649
f 24/21/650 25/23/650 38/39/650
f 25/23/651 26/25/651 39/40/651
f 26/25/652 14/27/652 27/41/652
f 28/29/653 41/43/653 40/42/653
f 29/30/654 42/44/654 41/43/654
f 30/31/655 43/45/655 42/44/655
f 31/32/656 44/46/656 43/45/656
f 32/33/657 45/47/657 44/46/657
f 33/34/658 46/49/658 45/47/658
f 33/34/33 34/36/33 47/48/33
f 34/36/659 35/35/659 48/50/659
f 35/35/660 36/37/660 49/51/660
f 36/37/661 37/38/661 50/52/661
f 37/38/662 38/39/662 51/53/662
f 38/39/663 39/40/663 52/54/663
f 39/40/664 27/41/664 40/55/664
f 66/2/665 67/5/665 54/1/665
f 67/5/666 68/7/666 55/4/666
f 68/7/667 69/9/667 56/6/667
f 69/9/668 70/11/668 57/8/668
f 70/11/669 71/13/669 58/10/669
f 71/13/670 72/15/670 59/12/670
f 72/15/46 73/17/46 60/14/46
f 60/14/671 73/17/671 74/16/671
f 61/18/672 74/16/672 75/19/672
f 62/20/673 75/19/673 76/21/673
f 63/22/674 76/21/674 77/23/674
f 64/24/675 77/23/675 78/25/675
f 65/26/676 78/25/676 66/27/676
f 79/28/677 80/29/677 67/5/677
f 80/29/678 81/30/678 68/7/678
f 81/30/679 82/31/679 69/9/679
f 82/31/680 83/32/680 70/11/680
f 83/32/681 84/33/681 71/13/681
f 84/33/682 85/34/682 72/15/682
f 85/34/59 86/36/59 73/17/59
f 73/17/683 86/36/683 87/35/683
f 74/16/684 87/35/684 88/37/684
f 75/19/685 88/37/685 89/38/685
f 76/21/686 89/38/686 90/39/686
f 77/23/687 90/39/687 91/40/687
f 78/25/688 91/40/688 79/41/688
f 92/42/689 93/43/689 80/29/689
f 93/43/690 94/44/690 81/30/690
f 94/44/691 95/45/691 82/31/691
f 95/45/692 96/46/692 83/32/692
f 96/46/693 97/47/693 84/33/693
f 97/47/694 98/49/694 85/34/694
f 98/49/72 99/48/72 86/36/72
f 86/36/695 99/48/695 100/50/695
f 87/35/696 100/50/696 101/51/696
f 88/37/697 101/51/697 102/52/697
f 89/38/698 102/52/698 103/53/698
f 90/39/699 103/53/699 104/54/699
f 91/40/700 104/54/700 92/55/700
f 210/1/701 223/58/701 222/57/701
f 211/4/702 224/59/702 223/58/702
f 212/6/703 225/60/703 224/59/703
f 213/8/704 226/61/704 225/60/704
f 214/10/705 227/62/705 226/61/705
f 215/12/706 228/63/706 227/62/706
f 216/14/163 229/65/163 228/63/163
f 216/14/707 217/18/707 230/64/707
f 217/18/708 218/20/708 231/66/708
f 218/20/709 219/22/709 232/67/709
f 219/22/710 220/24/710 233/68/710
f 220/24/711 221/26/711 234/69/711
f 221/26/712 209/56/712 222/70/712
f 223/58/713 236/5/713 235/2/713
f 224/59/714 237/7/714 236/5/714
f 225/60/715 238/9/715 237/7/715
f 226/61/716 239/11/716 238/9/716
f 227/62/717 240/13/717 239/11/717
f 228/63/718 241/15/718 240/13/718
f 229/65/176 242/17/176 241/15/176
f 229/65/719 230/64/719 243/16/719
f 230/64/720 231/66/720 244/19/720
f 231/66/721 232/67/721 245/21/721
f 232/67/722 233/68/722 246/23/722
f 233/68/723 234/69/723 247/25/723
f 234/69/724 222/70/724 235/27/724
f 236/5/725 249/72/725 248/71/725
f 237/7/726 250/73/726 249/72/726
f 238/9/727 251/74/727 250/73/727
f 239/11/728 252/75/728 251/74/728
f 240/13/729 253/76/729 252/75/729
f 241/15/730 254/77/730 253/76/730
f 242/17/189 255/79/189 254/77/189
f 242/17/731 243/16/731 256/78/731
f 243/16/732 244/19/732 257/80/732
f 244/19/733 245/21/733 258/81/733
f 245/21/734 246/23/734 259/82/734
f 246/23/735 247/25/735 260/83/735
f 247/25/736 235/27/736 248/84/736
f 249/72/737 262/29/737 261/28/737
f 250/73/738 263/30/738 262/29/738
f 251/74/739 264/31/739 263/30/739
f 252/75/740 265/32/740 264/31/740
f 253/76/741 266/33/741 265/32/741
f 254/77/742 267/34/742 266/33/742
f 255/79/202 268/36/202 267/34/202
f 255/79/743 256/78/743 269/35/743
f 256/78/744 257/80/744 270/37/744
f 257/80/745 258/81/745 271/38/745
f 258/81/746 259/82/746 272/39/746
f 259/82/747 260/83/747 273/40/747
f 260/83/748 248/84/748 261/41/748
f 262/29/749 275/86/749 274/85/749
f 263/30/750 276/87/750 275/86/750
f 264/31/751 277/88/751 276/87/751
f 265/32/752 278/89/752 277/88/752
f 266/33/753 279/90/753 278/89/753
f 267/34/754 280/92/754 279/90/754
f 267/34/215 268/36/215 281/91/215
f 268/36/755 269/35/755 282/93/755
f 269/35/756 270/37/756 283/94/756
f 270/37/757 271/38/757 284/95/757
f 271/38/758 272/39/758 285/96/758
f 272/39/759 273/40/759 286/97/759
f 273/40/760 261/41/760 274/98/760
f 275/86/761 288/43/761 287/42/761
f 276/87/762 289/44/762 288/43/762
f 277/88/763 290/45/763 289/44/763
f 278/89/764 291/46/764 290/45/764
f 279/90/765 292/47/765 291/46/765
f 280/92/766 293/49/766 292/47/766
f 281/91/228 294/48/228 293/49/228
f 281/91/767 282/93/767 295/50/767
f 282/93/768 283/94/768 296/51/768
f 283/94/769 284/95/769 297/52/769
f 284/95/770 285/96/770 298/53/770
f 285/96/771 286/97/771 299/54/771
f 286/97/772 274/98/772 287/55/772
f 313/57/773 314/58/773 301/1/773
f 314/58/774 315/59/774 302/4/774
f 315/59/775 316/60/775 303/6/775
f 316/60/776 317/61/776 304/8/776
f 317/61/777 318/62/777 305/10/777
f 318/62/778 319/63/778 306/12/778
f 319/63/241 320/65/241 307/14/241
f 307/14/779 320/65/779 321/64/779
f 308/18/780 321/64/780 322/66/780
f 309/20/781 322/66/781 323/67/781
f 310/22/782 323/67/782 324/68/782
f 311/24/783 324/68/783 325/69/783
f 312/26/784 325/69/784 313/70/784
f 326/2/785 327/5/785 314/58/785
f 327/5/786 328/7/786 315/59/786
f 328/7/787 329/9/787 316/60/787
f 329/9/788 330/11/788 317/61/788
f 330/11/789 331/13/789 318/62/789
f 331/13/790 332/15/790 319/63/790
f 332/15/254 333/17/254 320/65/254
f 320/65/791 333/17/791 334/16/791
f 321/64/792 334/16/792 335/19/792
f 322/66/793 335/19/793 336/21/793
f 323/67/794 336/21/794 337/23/794
f 324/68/795 337/23/795 338/25/795
f 325/69/796 338/25/796 326/27/796
f 339/71/797 340/72/797 327/5/797
f 340/72/798 341/73/798 328/7/798
f 341/73/799 342/74/799 329/9/799
f 342/74/800 343/75/800 330/11/800
f 343/75/801 344/76/801 331/13/801
f 344/76/802 345/77/802 332/15/802
f 345/77/267 346/79/267 333/17/267
f 333/17/803 346/79/803 347/78/803
f 334/16/804 347/78/804 348/80/804
f 335/19/805 348/80/805 349/81/805
f 336/21/806 349/81/806 350/82/806
f 337/23/807 350/82/807 351/83/807
f 338/25/808 351/83/808 339/84/808
f 352/28/809 353/29/809 340/72/809
f 353/29/810 354/30/810 341/73/810
f 354/30/811 355/31/811 342/74/811
f 355/31/812 356/32/812 343/75/812
f 356/32/813 357/33/813 344/76/813
f 357/33/814 358/34/814 345/77/814
f 358/34/280 359/36/280 346/79/280
f 346/79/815 359/36/815 360/35/815
f 347/78/816 360/35/816 361/37/816
f 348/80/817 361/37/817 362/38/817
f 349/81/818 362/38/818 363/39/818
f 350/82/819 363/39/819 364/40/819
f 351/83/820 364/40/820 352/41/820
f 365/85/821 366/86/821 353/29/821
f 366/86/822 367/87/822 354/30/822
f 367/87/823 368/88/823 355/31/823
f 368/88/824 369/89/824 356/32/824
f 369/89/825 370/90/825 357/33/825
f 370/90/826 371/92/826 358/34/826
f 371/92/293 372/91/293 359/36/293
f 359/36/827 372/91/827 373/93/827
f 360/35/828 373/93/828 374/94/828
f 361/37/829 374/94/829 375/95/829
f 362/38/830 375/95/830 376/96/830
f 363/39/831 376/96/831 377/97/831
f 364/40/832 377/97/832 365/98/832
f 378/42/833 379/43/833 366/86/833
f 379/43/834 380/44/834 367/87/834
f 380/44/835 381/45/835 368/88/835
f 381/45/836 382/46/836 369/89/836
f 382/46/837 383/47/837 370/90/837
f 383/47/838 384/49/838 371/92/838
f 371/92/306 384/49/306 385/48/306
f 372/91/839 385/48/839 386/50/839
f 373/93/840 386/50/840 387/51/840
f 374/94/841 387/51/841 388/52/841
f 375/95/842 388/52/842 389/53/842
f 376/96/843 389/53/843 390/54/843
f 377/97/844 390/54/844 378/55/844
f 392/1/845 405/100/845 404/99/845
f 393/4/846 406/101/846 405/100/846
f 394/6/847 407/102/847 406/101/847
f 395/8/848 408/103/848 407/102/848
f 396/10/849 409/104/849 408/103/849
f 397/12/850 410/105/850 409/104/850
f 398/14/319 411/107/319 410/105/319
f 398/14/851 399/18/851 412/106/851
f 399/18/852 400/20/852 413/108/852
f 400/20/853 401/22/853 414/109/853
f 401/22/854 402/24/854 415/110/854
f 402/24/855 403/26/855 416/111/855
f 403/26/856 391/56/856 404/112/856
f 405/100/857 418/114/857 417/113/857
f 406/101/858 419/115/858 418/114/858
f 407/102/859 420/116/859 419/115/859
f 408/103/860 421/117/860 420/116/860
f 409/104/861 422/118/861 421/117/861
f 410/105/862 423/119/862 422/118/862
f 411/107/332 424/121/332 423/119/332
f 411/107/863 412/106/863 425/120/863
f 412/106/864 413/108/864 426/122/864
f 413/108/865 414/109/865 427/123/865
f 414/109/866 415/110/866 428/124/866
f 415/110/867 416/111/867 429/125/867
f 416/111/868 404/112/868 417/126/868
f 418/114/869 431/128/869 430/127/869
f 419/115/870 432/129/870 431/128/870
f 420/116/871 433/130/871 432/129/871
f 421/117/872 434/131/872 433/130/872
f 422/118/873 435/132/873 434/131/873
f 423/119/874 436/133/874 435/132/874
f 424/121/345 437/135/345 436/133/345
f 424/121/875 425/120/875 438/134/875
f 425/120/876 426/122/876 439/136/876
f 426/122/877 427/123/877 440/137/877
f 427/123/878 428/124/878 441/138/878
f 428/124/879 429/125/879 442/139/879
f 429/125/880 417/126/880 430/140/880
f 431/128/881 444/72/881 443/71/881
f 432/129/882 445/73/882 444/72/882
f 433/130/883 446/74/883 445/73/883
f 434/131/884 447/75/884 446/74/884
f 435/132/885 448/76/885 447/75/885
f 436/133/886 449/77/886 448/76/886
f 437/135/358 450/79/358 449/77/358
f 437/135/887 438/134/887 451/78/887
f 438/134/888 439/136/888 452/80/888
f 439/136/889 440/137/889 453/81/889
f 440/137/890 441/138/890 454/82/890
f 441/138/891 442/139/891 455/83/891
f 442/139/892 430/140/892 443/84/892
f 444/72/893 457/142/893 456/141/893
f 445/73/894 458/143/894 457/142/894
f 446/74/895 459/144/895 458/143/895
f 447/75/896 460/145/896 459/144/896
f 448/76/897 461/146/897 460/145/897
f 449/77/898 462/147/898 461/146/898
f 450/79/371 463/149/371 462/147/371
f 450/79/899 451/78/899 464/148/899
f 451/78/900 452/80/900 465/150/900
f 452/80/901 453/81/901 466/151/901
f 453/81/902 454/82/902 467/152/902
f 454/82/903 455/83/903 468/153/903
f 455/83/904 443/84/904 456/154/904
f 457/142/905 470/156/905 469/155/905
f 458/143/906 471/157/906 470/156/906
f 459/144/907 472/158/907 471/157/907
f 460/145/908 473/159/908 472/158/908
f 461/146/909 474/160/909 473/159/909
f 462/147/910 475/161/910 474/160/910
f 463/149/384 476/163/384 475/161/384
f 463/149/911 464/148/911 477/162/911
f 464/148/912 465/150/912 478/164/912
f 465/150/913 466/151/913 479/165/913
f 466/151/914 467/152/914 480/166/914
f 467/152/915 468/153/915 481/167/915
f 468/153/916 456/154/916 469/168/916
f 470/156/917 483/170/917 482/169/917
f 471/157/918 484/171/918 483/170/918
f 472/158/919 485/172/919 484/171/919
f 473/159/920 486/173/920 485/172/920
f 474/160/921 487/174/921 486/173/921
f 475/161/922 488/175/922 487/174/922
f 476/163/923 489/177/923 488/175/923
f 476/163/924 477/162/924 490/176/924
f 477/162/925 478/164/925 491/178/925
f 478/164/926 479/165/926 492/179/926
f 479/165/927 480/166/927 493/180/927
f 480/166/928 481/167/928 494/181/928
f 481/167/929 469/168/929 482/182/929
f 483/170/930 496/43/930 495/42/930
f 484/171/931 497/44/931 496/43/931
f 485/172/932 498/45/932 497/44/932
f 486/173/933 499/46/933 498/45/933
f 487/174/934 500/47/934 499/46/934
f 488/175/935 501/49/935 500/47/935
f 489/177/410 502/48/410 501/49/410
f 489/177/936 490/176/936 503/50/936
f 490/176/937 491/178/937 504/51/937
f 491/178/938 492/179/938 505/52/938
f 492/179/939 493/180/939 506/53/939
f 493/180/940 494/181/940 507/54/940
f 494/181/941 482/182/941 495/55/941
f 521/99/942 522/100/942 509/1/942
f 522/100/943 523/101/943 510/4/943
f 523/101/944 524/102/944 511/6/944
f 524/102/945 525/103/945 512/8/945
f 525/103/946 526/104/946 513/10/946
f 526/104/947 527/105/947 514/12/947
f 527/105/423 528/107/423 515/14/423
f 515/14/948 528/107/948 529/106/948
f 516/18/949 529/106/949 530/108/949
f 517/20/950 530/108/950 531/109/950
f 518/22/951 531/109/951 532/110/951
f 519/24/952 532/110/952 533/111/952
f 520/26/953 533/111/953 521/112/953
f 534/113/954 535/114/954 522/100/954
f 535/114/955 536/115/955 523/101/955
f 536/115/956 537/116/956 524/102/956
f 537/116/957 538/117/957 525/103/957
f 538/117/958 539/118/958 526/104/958
f 539/118/959 540/119/959 527/105/959
f 527/105/436 540/119/436 541/121/436
f 528/107/960 541/121/960 542/120/960
f 529/106/961 542/120/961 543/122/961
f 530/108/962 543/122/962 544/123/962
f 531/109/963 544/123/963 545/124/963
f 532/110/964 545/124/964 546/125/964
f 533/111/965 546/125/965 534/126/965
f 547/127/966 548/128/966 535/114/966
f 548/128/967 549/129/967 536/115/967
f 549/129/968 550/130/968 537/116/968
f 550/130/969 551/131/969 538/117/969
f 551/131/970 552/132/970 539/118/970
f 552/132/971 553/133/971 540/119/971
f 540/119/449 553/133/449 554/135/449
f 541/121/972 554/135/972 555/134/972
f 542/120/973 555/134/973 556/136/973
f 543/122/974 556/136/974 557/137/974
f 544/123/975 557/137/975 558/138/975
f 545/124/976 558/138/976 559/139/976
f 546/125/977 559/139/977 547/140/977
f 560/71/978 561/72/978 548/128/978
f 561/72/979 562/73/979 549/129/979
f 562/73/980 563/74/980 550/130/980
f 563/74/981 564/75/981 551/131/981
f 564/75/982 565/76/982 552/132/982
f 565/76/983 566/77/983 553/133/983
f 566/77/462 567/79/462 554/135/462
f 554/135/984 567/79/984 568/78/984
f 555/134/985 568/78/985 569/80/985
f 556/136/986 569/80/986 570/81/986
f 557/137/987 570/81/987 571/82/987
f 558/138/988 571/82/988 572/83/988
f 559/139/989 572/83/989 560/84/989
f 573/141/990 574/142/990 561/72/990
f 574/142/991 575/143/991 562/73/991
f 575/143/992 576/144/992 563/74/992
f 576/144/993 577/145/993 564/75/993
f 577/145/994 578/146/994 565/76/994
f 578/146/995 579/147/995 566/77/995
f 579/147/475 580/149/475 567/79/475
f 567/79/996 580/149/996 581/148/996
f 568/78/997 581/148/997 582/150/997
f 569/80/998 582/150/998 583/151/998
f 570/81/999 583/151/999 584/152/999
f 571/82/1000 584/152/1000 585/153/1000
f 572/83/1001 585/153/1001 573/154/1001
f 586/155/1002 587/156/1002 574/142/1002
f 587/156/1003 588/157/1003 575/143/1003
f 588/157/1004 589/158/1004 576/144/1004
f 589/158/1005 590/159/1005 577/145/1005
f 590/159/1006 591/160/1006 578/146/1006
f 591/160/1007 592/161/1007 579/147/1007
f 579/147/488 592/161/488 593/163/488
f 580/149/1008 593/163/1008 594/162/1008
f 581/148/1009 594/162/1009 595/164/1009
f 582/150/1010 595/164/1010 596/165/1010
f 583/151/1011 596/165/1011 597/166/1011
f 584/152/1012 597/166/1012 598/167/1012
f 585/153/1013 598/167/1013 586/168/1013
f 599/169/1014 600/170/1014 587/156/1014
f 600/170/1015 601/171/1015 588/157/1015
f 601/171/1016 602/172/1016 589/158/1016
f 602/172/1017 603/173/1017 590/159/1017
f 603/173/1018 604/174/1018 591/160/1018
f 604/174/1019 605/175/1019 592/161/1019
f 605/175/1020 606/177/1020 593/163/1020
f 593/163/1021 606/177/1021 607/176/1021
f 594/162/1022 607/176/1022 608/178/1022
f 595/164/1023 608/178/1023 609/179/1023
f 596/165/1024 609/179/1024 610/180/1024
f 597/166/1025 610/180/1025 611/181/1025
f 598/167/1026 611/181/1026 599/182/1026
f 612/42/1027 613/43/1027 600/170/1027
f 613/43/1028 614/44/1028 601/171/1028
f 614/44/1029 615/45/1029 602/172/1029
f 615/45/1030 616/46/1030 603/173/1030
f 616/46/1031 617/47/1031 604/174/1031
f 617/47/1032 618/49/1032 605/175/1032
f 618/49/514 619/48/514 606/177/514
f 606/177/1033 619/48/1033 620/50/1033
f 607/176/1034 620/50/1034 621/51/1034
f 608/178/1035 621/51/1035 622/52/1035
f 609/179/1036 622/52/1036 623/53/1036
f 610/180/1037 623/53/1037 624/54/1037
f 611/181/1038 624/54/1038 612/55/1038
usemtl iron
f 105/3/79 119/5/79 118/2/79
f 106/1/80 120/7/80 119/5/80
f 108/6/81 120/7/81 107/4/81
f 109/8/82 121/9/82 108/6/82
f 109/8/83 123/13/83 122/11/83
f 111/12/84 123/13/84 110/10/84
f 112/14/85 124/15/85 111/12/85
f 112/14/86 126/16/86 125/17/86
f 114/20/87 126/16/87 113/18/87
f 114/20/88 128/21/88 127/19/88
f 115/22/89 129/23/89 128/21/89
f 117/26/90 129/23/90 116/24/90
f 105/56/91 130/25/91 117/26/91
f 119/5/92 131/28/92 118/2/92
f 120/7/93 132/29/93 119/5/93
f 121/9/94 133/30/94 120/7/94
f 122/11/95 134/31/95 121/9/95
f 122/11/96 136/33/96 135/32/96
f 123/13/97 137/34/97 136/33/97
f 125/17/98 137/34/98 124/15/98
f 126/16/99 138/36/99 125/17/99
f 127/19/100 139/35/100 126/16/100
f 128/21/101 140/37/101 127/19/101
f 128/21/102 142/39/102 141/38/102
f 129/23/103 143/40/103 142/39/103
f 130/25/104 131/41/104 143/40/104
f 131/28/105 145/43/105 144/42/105
f 133/30/106 145/43/106 132/29/106
f 134/31/107 146/44/107 133/30/107
f 135/32/108 147/45/108 134/31/108
f 135/32/109 149/47/109 148/46/109
f 137/34/110 149/47/110 136/33/110
f 138/36/111 150/49/111 137/34/111
f 138/36/112 152/50/112 151/48/112
f 139/35/113 153/51/113 152/50/113
f 141/38/114 153/51/114 140/37/114
f 142/39/115 154/52/115 141/38/115
f 143/40/116 155/53/116 142/39/116
f 143/40/117 144/55/117 156/54/117
f 157/3/118 171/5/118 158/1/118
f 158/1/119 172/7/119 159/4/119
f 172/7/120 160/6/120 159/4/120
f 173/9/121 161/8/121 160/6/121
f 161/8/122 175/13/122 162/10/122
f 175/13/123 163/12/123 162/10/123
f 176/15/124 164/14/124 163/12/124
f 164/14/125 178/16/125 165/18/125
f 178/16/126 166/20/126 165/18/126
f 166/20/127 180/21/127 167/22/127
f 167/22/128 181/23/128 168/24/128
f 181/23/129 169/26/129 168/24/129
f 182/25/130 157/56/130 169/26/130
f 183/28/131 171/5/131 170/2/131
f 184/29/132 172/7/132 171/5/132
f 185/30/133 173/9/133 172/7/133
f 186/31/134 174/11/134 173/9/134
f 174/11/135 188/33/135 175/13/135
f 175/13/136 189/34/136 176/15/136
f 189/34/137 177/17/137 176/15/137
f 190/36/138 178/16/138 177/17/138
f 191/35/139 179/19/139 178/16/139
f 192/37/140 180/21/140 179/19/140
f 180/21/141 194/39/141 181/23/141
f 181/23/142 195/40/142 182/25/142
f 182/25/143 183/41/143 170/27/143
f 196/42/144 184/29/144 183/28/144
f 197/43/145 185/30/145 184/29/145
f 198/44/146 186/31/146 185/30/146
f 199/45/147 187/32/147 186/31/147
f 187/32/148 201/47/148 188/33/148
f 201/47/149 189/34/149 188/33/149
f 202/49/150 190/36/150 189/34/150
f 203/48/151 191/35/151 190/36/151
f 204/50/152 192/37/152 191/35/152
f 192/37/153 206/52/153 193/38/153
f 193/38/154 207/53/154 194/39/154
f 207/53/155 195/40/155 194/39/155
f 208/54/156 183/41/156 195/40/156
f 625/3/521 629/3/521 631/3/521
f 626/3/522 629/3/522 628/3/522
f 627/3/523 629/3/523 630/3/523
f 632/3/524 636/3/524 638/3/524
f 633/3/525 636/3/525 635/3/525
f 634/3/526 636/3/526 637/3/526
f 639/3/527 643/3/527 645/3/527
f 640/3/528 643/3/528 642/3/528
f 641/3/529 643/3/529 644/3/529
f 646/3/530 650/3/530 652/3/530
f 647/3/531 650/3/531 649/3/531
f 648/3/532 650/3/532 651/3/532
f 653/3/533 657/3/533 659/3/533
f 654/3/534 657/3/534 656/3/534
f 655/3/535 657/3/535 658/3/535
f 660/3/536 664/3/536 666/3/536
f 661/3/537 664/3/537 663/3/537
f 662/3/538 664/3/538 665/3/538
f 667/3/539 671/3/539 673/3/539
f 668/3/540 671/3/540 670/3/540
f 669/3/541 671/3/541 672/3/541
f 674/3/542 678/3/542 680/3/542
f 675/3/543 678/3/543 677/3/543
f 676/3/544 678/3/544 679/3/544
f 625/3/545 642/3/545 639/3/545
f 631/3/546 640/3/546 642/3/546
f 632/3/547 630/3/547 626/3/547
f 638/3/548 627/3/548 630/3/548
f 646/3/549 637/3/549 633/3/549
f 652/3/550 634/3/550 637/3/550
f 647/3/551 644/3/551 651/3/551
f 644/3/552 648/3/552 651/3/552
f 667/3/553 645/3/553 670/3/553
f 645/3/554 668/3/554 670/3/554
f 674/3/555 649/3/555 646/3/555
f 680/3/556 647/3/556 649/3/556
f 669/3/557 679/3/557 675/3/557
f 672/3/558 676/3/558 679/3/558
f 667/3/559 656/3/559 653/3/559
f 673/3/560 654/3/560 656/3/560
f 660/3/561 677/3/561 674/3/561
f 666/3/562 675/3/562 677/3/562
f 655/3/563 665/3/563 661/3/563
f 665/3/564 654/3/564 662/3/564
f 653/3/565 628/3/565 625/3/565
f 659/3/566 626/3/566 628/3/566
f 633/3/567 663/3/567 660/3/567
f 663/3/568 632/3/568 661/3/568
f 667/3/569 625/3/569 639/3/569
f 627/3/570 648/3/570 640/3/570
f 661/3/571 626/3/571 655/3/571
f 646/3/572 660/3/572 674/3/572
f 647/3/573 668/3/573 641/3/573
f 675/3/574 654/3/574 669/3/574
f 681/3/575 685/3/575 687/3/575
f 682/3/576 685/3/576 684/3/576
f 687/3/577 686/3/577 683/3/577
f 688/3/578 692/3/578 694/3/578
f 689/3/579 692/3/579 691/3/579
f 694/3/580 693/3/580 690/3/580
f 695/3/581 699/3/581 701/3/581
f 700/3/582 698/3/582 696/3/582
f 697/3/583 699/3/583 700/3/583
f 702/3/584 706/3/584 708/3/584
f 703/3/585 706/3/585 705/3/585
f 708/3/586 707/3/586 704/3/586
f 709/3/587 713/3/587 715/3/587
f 714/3/588 712/3/588 710/3/588
f 711/3/589 713/3/589 714/3/589
f 716/3/590 720/3/590 722/3/590
f 717/3/591 720/3/591 719/3/591
f 722/3/592 721/3/592 718/3/592
f 723/3/593 727/3/593 729/3/593
f 724/3/594 727/3/594 726/3/594
f 729/3/595 728/3/595 725/3/595
f 730/3/596 734/3/596 736/3/596
f 735/3/597 733/3/597 731/3/597
f 732/3/598 734/3/598 735/3/598
f 681/3/599 698/3/599 695/3/599
f 687/3/600 696/3/600 698/3/600
f 688/3/601 686/3/601 682/3/601
f 686/3/602 690/3/602 683/3/602
f 689/3/603 708/3/603 693/3/603
f 708/3/604 690/3/604 693/3/604
f 697/3/605 707/3/605 703/3/605
f 700/3/606 704/3/606 707/3/606
f 723/3/607 701/3/607 726/3/607
f 701/3/608 724/3/608 726/3/608
f 702/3/609 736/3/609 705/3/609
f 736/3/610 703/3/610 705/3/610
f 725/3/611 735/3/611 731/3/611
f 735/3/612 724/3/612 732/3/612
f 723/3/613 712/3/613 709/3/613
f 729/3/614 710/3/614 712/3/614
f 730/3/615 722/3/615 733/3/615
f 722/3/616 731/3/616 733/3/616
f 711/3/617 721/3/617 717/3/617
f 721/3/618 710/3/618 718/3/618
f 681/3/619 715/3/619 684/3/619
f 715/3/620 682/3/620 684/3/620
f 689/3/621 719/3/621 716/3/621
f 719/3/622 688/3/622 717/3/622
f 723/3/623 681/3/623 695/3/623
f 690/3/624 696/3/624 683/3/624
f 711/3/625 688/3/625 682/3/625
f 702/3/626 716/3/626 730/3/626
f 697/3/627 732/3/627 724/3/627
f 731/3/628 710/3/628 725/3/628
f 105/3/79 106/1/79 119/5/79
f 106/1/80 107/4/80 120/7/80
f 108/6/81 121/9/81 120/7/81
f 109/8/82 122/11/82 121/9/82
f 109/8/83 110/10/83 123/13/83
f 111/12/84 124/15/84 123/13/84
f 112/14/85 125/17/85 124/15/85
f 112/14/86 113/18/86 126/16/86
f 114/20/87 127/19/87 126/16/87
f 114/20/88 115/22/88 128/21/88
f 115/22/89 116/24/89 129/23/89
f 117/26/90 130/25/90 129/23/90
f 105/56/91 118/27/91 130/25/91
f 119/5/92 132/29/92 131/28/92
f 120/7/93 133/30/93 132/29/93
f 121/9/94 134/31/94 133/30/94
f 122/11/95 135/32/95 134/31/95
f 122/11/96 123/13/96 136/33/96
f 123/13/97 124/15/97 137/34/97
f 125/17/98 138/36/98 137/34/98
f 126/16/99 139/35/99 138/36/99
f 127/19/100 140/37/100 139/35/100
f 128/21/101 141/38/101 140/37/101
f 128/21/102 129/23/102 142/39/102
f 129/23/103 130/25/103 143/40/103
f 130/25/104 118/27/104 131/41/104
f 131/28/105 132/29/105 145/43/105
f 133/30/106 146/44/106 145/43/106
f 134/31/107 147/45/107 146/44/107
f 135/32/108 148/46/108 147/45/108
f 135/32/109 136/33/109 149/47/109
f 137/34/110 150/49/110 149/47/110
f 138/36/111 151/48/111 150/49/111
f 138/36/112 139/35/112 152/50/112
f 139/35/113 140/37/113 153/51/113
f 141/38/114 154/52/114 153/51/114
f 142/39/115 155/53/115 154/52/115
f 143/40/116 156/54/116 155/53/116
f 143/40/117 131/41/117 144/55/117
f 157/3/118 170/2/118 171/5/118
f 158/1/119 171/5/119 172/7/119
f 172/7/120 173/9/120 160/6/120
f 173/9/121 174/11/121 161/8/121
f 161/8/122 174/11/122 175/13/122
f 175/13/123 176/15/123 163/12/123
f 176/15/124 177/17/124 164/14/124
f 164/14/125 177/17/125 178/16/125
f 178/16/126 179/19/126 166/20/126
f 166/20/127 179/19/127 180/21/127
f 167/22/128 180/21/128 181/23/128
f 181/23/129 182/25/129 169/26/129
f 182/25/130 170/27/130 157/56/130
f 183/28/131 184/29/131 171/5/131
f 184/29/132 185/30/132 172/7/132
f 185/30/133 186/31/133 173/9/133
f 186/31/134 187/32/134 174/11/134
f 174/11/135 187/32/135 188/33/135
f 175/13/136 188/33/136 189/34/136
f 189/34/137 190/36/137 177/17/137
f 190/36/138 191/35/138 178/16/138
f 191/35/139 192/37/139 179/19/139
f 192/37/140 193/38/140 180/21/140
f 180/21/141 193/38/141 194/39/141
f 181/23/142 194/39/142 195/40/142
f 182/25/143 195/40/143 183/41/143
f 196/42/144 197/43/144 184/29/144
f 197/43/145 198/44/145 185/30/145
f 198/44/146 199/45/146 186/31/146
f 199/45/147 200/46/147 187/32/147
f 187/32/148 200/46/148 201/47/148
f 201/47/149 202/49/149 189/34/149
f 202/49/150 203/48/150 190/36/150
f 203/48/151 204/50/151 191/35/151
f 204/50/152 205/51/152 192/37/152
f 192/37/153 205/51/153 206/52/153
f 193/38/154 206/52/154 207/53/154
f 207/53/155 208/54/155 195/40/155
f 208/54/156 196/55/156 183/41/156
f 625/3/1039 628/3/1039 629/3/1039
f 626/3/1040 630/3/1040 629/3/1040
f 627/3/1041 631/3/1041 629/3/1041
f 632/3/1042 635/3/1042 636/3/1042
f 633/3/1043 637/3/1043 636/3/1043
f 634/3/1044 638/3/1044 636/3/1044
f 639/3/1045 642/3/1045 643/3/1045
f 640/3/1046 644/3/1046 643/3/1046
f 641/3/1047 645/3/1047 643/3/1047
f 646/3/1048 649/3/1048 650/3/1048
f 647/3/1049 651/3/1049 650/3/1049
f 648/3/1050 652/3/1050 650/3/1050
f 653/3/1051 656/3/1051 657/3/1051
f 654/3/1052 658/3/1052 657/3/1052
f 655/3/1053 659/3/1053 657/3/1053
f 660/3/1054 663/3/1054 664/3/1054
f 661/3/1055 665/3/1055 664/3/1055
f 662/3/1056 666/3/1056 664/3/1056
f 667/3/1057 670/3/1057 671/3/1057
f 668/3/1058 672/3/1058 671/3/1058
f 669/3/1059 673/3/1059 671/3/1059
f 674/3/1060 677/3/1060 678/3/1060
f 675/3/1061 679/3/1061 678/3/1061
f 676/3/1062 680/3/1062 678/3/1062
f 625/3/545 631/3/545 642/3/545
f 631/3/546 627/3/546 640/3/546
f 632/3/547 638/3/547 630/3/547
f 638/3/548 634/3/548 627/3/548
f 646/3/1063 652/3/1063 637/3/1063
f 652/3/550 648/3/550 634/3/550
f 647/3/551 641/3/551 644/3/551
f 644/3/1064 640/3/1064 648/3/1064
f 667/3/553 639/3/553 645/3/553
f 645/3/554 641/3/554 668/3/554
f 674/3/555 680/3/555 649/3/555
f 680/3/556 676/3/556 647/3/556
f 669/3/557 672/3/557 679/3/557
f 672/3/558 668/3/558 676/3/558
f 667/3/559 673/3/559 656/3/559
f 673/3/560 669/3/560 654/3/560
f 660/3/561 666/3/561 677/3/561
f 666/3/562 662/3/562 675/3/562
f 655/3/563 658/3/563 665/3/563
f 665/3/1065 658/3/1065 654/3/1065
f 653/3/1066 659/3/1066 628/3/1066
f 659/3/566 655/3/566 626/3/566
f 633/3/1067 635/3/1067 663/3/1067
f 663/3/568 635/3/568 632/3/568
f 667/3/569 653/3/569 625/3/569
f 627/3/570 634/3/570 648/3/570
f 661/3/571 632/3/571 626/3/571
f 646/3/572 633/3/572 660/3/572
f 647/3/573 676/3/573 668/3/573
f 675/3/574 662/3/574 654/3/574
f 681/3/1068 684/3/1068 685/3/1068
f 682/3/1069 686/3/1069 685/3/1069
f 687/3/1070 685/3/1070 686/3/1070
f 688/3/1071 691/3/1071 692/3/1071
f 689/3/1072 693/3/1072 692/3/1072
f 694/3/1073 692/3/1073 693/3/1073
f 695/3/1074 698/3/1074 699/3/1074
f 700/3/1075 699/3/1075 698/3/1075
f 697/3/1076 701/3/1076 699/3/1076
f 702/3/1077 705/3/1077 706/3/1077
f 703/3/1078 707/3/1078 706/3/1078
f 708/3/1079 706/3/1079 707/3/1079
f 709/3/1080 712/3/1080 713/3/1080
f 714/3/1081 713/3/1081 712/3/1081
f 711/3/1082 715/3/1082 713/3/1082
f 716/3/1083 719/3/1083 720/3/1083
f 717/3/1084 721/3/1084 720/3/1084
f 722/3/1085 720/3/1085 721/3/1085
f 723/3/1086 726/3/1086 727/3/1086
f 724/3/1087 728/3/1087 727/3/1087
f 729/3/1088 727/3/1088 728/3/1088
f 730/3/1089 733/3/1089 734/3/1089
f 735/3/1090 734/3/1090 733/3/1090
f 732/3/1091 736/3/1091 734/3/1091
f 681/3/599 687/3/599 698/3/599
f 687/3/600 683/3/600 696/3/600
f 688/3/601 694/3/601 686/3/601
f 686/3/602 694/3/602 690/3/602
f 689/3/603 702/3/603 708/3/603
f 708/3/604 704/3/604 690/3/604
f 697/3/605 700/3/605 707/3/605
f 700/3/606 696/3/606 704/3/606
f 723/3/607 695/3/607 701/3/607
f 701/3/608 697/3/608 724/3/608
f 702/3/609 730/3/609 736/3/609
f 736/3/610 732/3/610 703/3/610
f 725/3/611 728/3/611 735/3/611
f 735/3/612 728/3/612 724/3/612
f 723/3/1092 729/3/1092 712/3/1092
f 729/3/614 725/3/614 710/3/614
f 730/3/615 716/3/615 722/3/615
f 722/3/616 718/3/616 731/3/616
f 711/3/617 714/3/617 721/3/617
f 721/3/618 714/3/618 710/3/618
f 681/3/619 709/3/619 715/3/619
f 715/3/1093 711/3/1093 682/3/1093
f 689/3/621 691/3/621 719/3/621
f 719/3/622 691/3/622 688/3/622
f 723/3/623 709/3/623 681/3/623
f 690/3/624 704/3/624 696/3/624
f 711/3/625 717/3/625 688/3/625
f 702/3/626 689/3/626 716/3/626
f 697/3/627 703/3/627 732/3/627
f 731/3/628 718/3/628 710/3/628
